<svg width="50" height="50" viewBox="0 0 50 50" fill="none" xmlns="http://www.w3.org/2000/svg">
<g clip-path="url(#clip0_93_4554)">
<path d="M49.1382 41.3791H0.862474C0.386401 41.3791 0.000366211 40.9931 0.000366211 40.517V9.48271C0.000366211 9.00664 0.386401 8.62061 0.862474 8.62061H49.1383C49.6143 8.62061 50.0004 9.00664 50.0004 9.48271V40.517C50.0003 40.9932 49.6142 41.3791 49.1382 41.3791Z" fill="#FF4B55"/>
<path d="M34.4294 29.0814C33.9579 28.7851 33.6751 29.2565 33.6751 29.2565L32.3012 29.4181L32.9881 28.8389C33.4864 28.8794 33.5538 28.7312 33.6885 28.5292C33.8231 28.3271 34.3889 28.4214 34.3889 28.4214C34.308 27.8018 33.5267 28.152 33.5267 28.152C32.8936 28.0846 32.7859 28.5965 32.7859 28.5965L31.8026 29.3508L29.6387 28.7096C29.8631 28.4624 30.0393 28.2187 30.065 28.0712C30.1081 27.8234 28.4667 27.4066 27.9638 26.8858C27.4609 26.3649 27.2813 25.5388 27.5148 25.3233C27.7482 25.1078 27.9459 25.7183 28.1973 26.2213C28.4486 26.7242 28.9157 27.1192 29.221 26.8678C29.5263 26.6165 28.8977 26.2393 28.6103 25.7005C28.323 25.1617 28.8259 24.964 29.0594 25.0179C29.2929 25.0718 29.4365 26.1854 29.9934 26.76C30.55 27.3347 31.0529 27.2269 31.1068 26.8677C31.1607 26.5086 30.188 26.066 29.9903 25.7606C29.7928 25.4553 29.7418 24.8562 30.0651 24.8383C30.3884 24.8204 31.5737 26.587 32.5796 27.2629C33.6751 27.9993 34.5551 27.1372 34.4115 26.778C34.2679 26.4187 33.6033 26.5625 32.831 26.3648C32.0588 26.1672 31.2685 25.1256 31.035 24.5509C30.8016 23.9762 30.9946 23.9762 31.1294 24.0301C31.2641 24.084 31.776 24.8383 32.7593 25.4175C33.7426 25.9967 34.4295 25.4445 34.5103 25.3098C34.5912 25.1752 34.9018 24.5705 33.8907 24.7127C32.7414 24.8743 32.0857 24.1919 31.6143 23.8282C31.1429 23.4645 30.9543 22.9661 31.1698 22.764C31.3853 22.562 32.0947 23.4734 33.1723 23.7608C34.1621 24.0247 34.5641 23.5992 34.5371 23.2086C34.5101 22.8179 34.2811 22.9796 33.1632 22.8718C32.0452 22.7641 31.264 21.7134 31.2235 21.6461C31.1831 21.5787 31.1966 21.2015 31.7623 21.5652C32.328 21.9289 33.3383 22.1444 33.9309 22.1175C34.5236 22.0905 34.6448 21.2958 34.362 21.1611C34.0792 21.0264 34.0118 21.2285 33.3652 21.3632C32.7186 21.4978 31.5064 20.8379 31.21 20.528C30.9137 20.2181 31.237 20.0162 31.3851 20.043C31.5333 20.0699 32.5031 20.6357 33.3652 20.6088C34.2273 20.5818 34.591 19.7871 34.564 19.5446C34.5371 19.3021 34.2946 19.1001 33.9309 19.3426C33.5673 19.585 33.0823 19.8678 32.2742 19.7332C31.466 19.5985 31.0889 19.0596 31.1967 18.8577C31.3044 18.6556 32.0856 19.0058 33.3249 18.8712C34.5641 18.7365 34.618 17.6454 34.4968 17.4299C34.3756 17.2143 34.0792 17.2817 33.6616 17.6723C33.244 18.063 32.4358 18.1438 31.8028 18.1438C31.1697 18.1438 31.1562 17.8341 31.2506 17.6185C31.3449 17.403 32.0183 17.4569 32.9612 17.1605C33.9041 16.8642 34.4429 16.1098 34.5911 15.6385C34.7393 15.1671 34.3756 14.8033 34.2274 14.8033C34.0793 14.8033 34.1735 14.5878 33.527 15.5172C32.8805 16.4466 31.1833 16.8102 31.1833 16.8102C31.0621 16.5812 30.8735 16.5005 30.8735 16.5005C29.7286 16.7295 28.3476 17.718 28.3476 17.718C28.3476 17.718 28.591 18.4989 28.2868 19.1075C27.8951 19.8909 26.5525 19.4015 26.9177 18.1643C27.2217 17.1341 28.3983 16.5112 29.3924 16.3996C30.3863 16.2881 30.437 15.9128 30.437 15.9128C30.437 15.9128 29.3933 16.2526 29.3746 15.7861C29.5901 15.8299 29.9078 15.8489 30.4472 15.8012C31.2484 15.7303 31.6947 15.1622 31.3397 15.0405C30.9848 14.9188 31.1369 15.284 30.5283 15.568C30.0942 15.7705 29.6387 15.6793 29.4106 15.61C29.6213 15.1501 30.508 15.3853 30.508 15.3853C30.5182 14.5841 29.455 14.8707 29.455 14.8707C28.9881 13.8648 26.2581 15.0323 26.2581 15.0323L26.9047 15.5531C25.3242 16.4331 25.0009 18.1033 25.0009 18.1033C25.0009 18.1033 24.6776 16.4331 23.0971 15.553L23.7437 15.0322C23.7437 15.0322 21.0137 13.8647 20.5468 14.8706C20.5468 14.8706 19.4835 14.5841 19.4938 15.3852C19.4938 15.3852 20.3805 15.15 20.5912 15.6099C20.3632 15.6793 19.9076 15.7704 19.4736 15.5679C18.8651 15.2838 19.0172 14.9188 18.6621 15.0404C18.3071 15.1621 18.7534 15.7301 19.5547 15.8011C20.0941 15.8488 20.4117 15.8299 20.6273 15.786C20.6086 16.2525 19.5649 15.9127 19.5649 15.9127C19.5649 15.9127 19.6156 16.2879 20.6095 16.3995C21.6034 16.5111 22.7802 17.134 23.0842 18.1642C23.4492 19.4015 22.1067 19.8907 21.7151 19.1074C21.4108 18.4989 21.6543 17.7179 21.6543 17.7179C21.6543 17.7179 20.2733 16.7294 19.1283 16.5004C19.1283 16.5004 18.9398 16.5812 18.8186 16.8101C18.8186 16.8101 17.1214 16.4465 16.4748 15.5171C15.8282 14.5877 15.9226 14.8032 15.7744 14.8032C15.6263 14.8032 15.2626 15.1669 15.4108 15.6384C15.5589 16.1098 16.0977 16.8641 17.0406 17.1604C17.9836 17.4567 18.657 17.4029 18.7513 17.6184C18.8456 17.834 18.8321 18.1437 18.199 18.1437C17.5659 18.1437 16.7577 18.0629 16.3403 17.6722C15.9227 17.2816 15.6264 17.2142 15.5051 17.4298C15.3839 17.6453 15.4377 18.7363 16.677 18.8711C17.9162 19.0057 18.6975 18.6555 18.8052 18.8576C18.9129 19.0596 18.5358 19.5984 17.7277 19.7331C16.9195 19.8677 16.4346 19.5849 16.0709 19.3425C15.7072 19.1 15.4648 19.302 15.4378 19.5445C15.4109 19.787 15.7745 20.5817 16.6366 20.6087C17.4987 20.6356 18.4686 20.0699 18.6167 20.0429C18.7649 20.016 19.0882 20.218 18.7918 20.5278C18.4955 20.8376 17.2832 21.4976 16.6366 21.363C15.9901 21.2283 15.9228 21.0262 15.6399 21.1609C15.357 21.2956 15.4782 22.0903 16.0709 22.1173C16.6636 22.1442 17.6738 21.9287 18.2396 21.565C18.8053 21.2013 18.8188 21.5785 18.7783 21.6459C18.7379 21.7133 17.9567 22.7638 16.8387 22.8716C15.7207 22.9794 15.4917 22.8177 15.4648 23.2084C15.4378 23.599 15.8399 24.0246 16.8297 23.7606C17.9072 23.4732 18.6168 22.5618 18.8322 22.7638C19.0478 22.9659 18.8592 23.4642 18.3877 23.828C17.9162 24.1917 17.2607 24.8741 16.1114 24.7125C15.1002 24.5704 15.411 25.175 15.4917 25.3096C15.5725 25.4443 16.2595 25.9965 17.2428 25.4173C18.2261 24.8382 18.7379 24.0839 18.8727 24.0299C19.0073 23.976 19.2005 23.976 18.967 24.5507C18.7335 25.1255 17.9433 26.1672 17.171 26.3646C16.3988 26.5623 15.7342 26.4185 15.5906 26.7778C15.4469 27.137 16.3269 27.999 17.4225 27.2627C18.4283 26.5867 19.6136 24.8201 19.9369 24.8381C20.2602 24.8559 20.2092 25.455 20.0117 25.7603C19.8141 26.0657 18.8413 26.5083 18.8952 26.8674C18.9491 27.2266 19.4519 27.3343 20.0087 26.7597C20.5654 26.185 20.7091 25.0714 20.9427 25.0176C21.1761 24.9637 21.679 25.1614 21.3916 25.7002C21.1043 26.2389 20.4757 26.6161 20.7811 26.8675C21.0863 27.1189 21.5533 26.7239 21.8048 26.221C22.0562 25.718 22.2537 25.1075 22.4872 25.323C22.7207 25.5385 22.5411 26.3646 22.0382 26.8855C21.5354 27.4063 19.8938 27.8231 19.9369 28.0709C19.9626 28.2184 20.1388 28.462 20.3633 28.7093L18.1993 29.3504L17.216 28.5962C17.216 28.5962 17.1083 28.0843 16.4752 28.1516C16.4752 28.1516 15.694 27.8014 15.6131 28.4211C15.6131 28.4211 16.1788 28.3267 16.3135 28.5288C16.4482 28.7308 16.5155 28.879 17.0139 28.8385L17.7007 29.4178L16.3268 29.2562C16.3268 29.2562 16.0439 28.7847 15.5725 29.0811C15.5725 29.0811 14.9798 28.8925 14.8317 29.4583C14.8317 29.4583 15.3435 29.3639 15.4782 29.4313C15.4782 29.4313 15.6803 29.8893 16.3269 29.6199L17.6873 29.6873L16.9196 30.0644C16.9196 30.0644 15.9497 29.7546 15.9902 30.5627C15.9902 30.5627 15.7072 30.886 15.9632 31.2093C15.9632 31.2093 16.0171 30.8591 16.273 30.711C16.273 30.711 16.7713 30.913 17.0946 30.3204L18.0779 29.7277L19.0478 30.1992C19.0478 30.1992 19.0208 30.7245 19.7347 30.5089C19.7347 30.5089 19.9772 30.6706 20.0444 30.8861C20.0444 30.8861 20.3542 30.5494 19.8559 30.1587C19.8559 30.1587 19.7347 29.7007 19.142 29.8758L18.5898 29.5929L20.6332 28.9866C20.987 29.3235 21.3688 29.5998 21.5024 29.5535C21.766 29.4622 21.969 29.1884 22.1514 28.803C22.3339 28.4175 23.1555 27.0789 23.5611 27.0891C23.9668 27.0993 24.1494 27.4237 24.048 28.0019C23.9466 28.5799 23.156 29.6874 22.6441 29.9164C22.1322 30.1454 22.0514 30.2531 21.5799 30.2127C21.1084 30.1722 20.9468 30.3743 21.0546 30.6437C21.1623 30.9131 21.6927 31.0844 22.213 30.8862C22.7787 30.6707 22.9942 30.3744 23.2098 30.5495C23.4253 30.7246 22.9808 31.3577 22.3746 31.5462C21.7685 31.7348 21.3105 31.6136 21.4048 31.9908C21.4991 32.3679 22.1456 32.3949 22.5632 32.1524C22.9808 31.9099 23.4522 31.2365 23.5734 31.452C23.6946 31.6675 23.6139 32.2198 23.2098 32.5162C22.8057 32.8125 22.346 32.6381 22.2534 32.9068C22.1188 33.2974 22.5901 33.5534 22.9538 33.4051C23.3175 33.257 23.7351 32.799 23.9236 32.3949C24.1122 31.9908 24.4624 32.341 24.3547 32.7181C24.247 33.0953 24.3367 33.405 23.5644 33.9977L25.0012 36.2067L26.438 33.9976C25.6657 33.4049 25.7556 33.0952 25.6477 32.718C25.5399 32.3409 25.8901 31.9907 26.0787 32.3948C26.2673 32.7989 26.6849 33.2569 27.0485 33.405C27.4122 33.5532 27.8837 33.2973 27.7489 32.9067C27.6563 32.638 27.1967 32.8124 26.7926 32.5161C26.3885 32.2198 26.3076 31.6674 26.4289 31.4519C26.5501 31.2364 27.0216 31.9099 27.4392 32.1523C27.8567 32.3948 28.5033 32.3678 28.5976 31.9907C28.6918 31.6135 28.2339 31.7347 27.6277 31.5461C27.0216 31.3576 26.5771 30.7245 26.7926 30.5494C27.0081 30.3743 27.2236 30.6706 27.7894 30.8861C28.3098 31.0843 28.84 30.913 28.9478 30.6436C29.0555 30.3742 28.8938 30.1721 28.4225 30.2126C27.951 30.253 27.8702 30.1452 27.3583 29.9163C26.8464 29.6874 26.0559 28.5799 25.9544 28.0018C25.8529 27.4237 26.0356 27.0991 26.4412 27.089C26.8469 27.0788 27.6684 28.4174 27.851 28.8029C28.0335 29.1883 28.2363 29.4622 28.5 29.5535C28.6337 29.5998 29.0155 29.3235 29.3691 28.9866L31.4126 29.5929L30.8603 29.8758C30.2677 29.7007 30.1465 30.1587 30.1465 30.1587C29.6481 30.5494 29.9579 30.8861 29.9579 30.8861C30.0253 30.6706 30.2677 30.5089 30.2677 30.5089C30.9815 30.7245 30.9546 30.1992 30.9546 30.1992L31.9244 29.7277L32.9077 30.3204C33.2309 30.913 33.7294 30.711 33.7294 30.711C33.9853 30.8591 34.0391 31.2093 34.0391 31.2093C34.2951 30.8861 34.0122 30.5627 34.0122 30.5627C34.0526 29.7546 33.0828 30.0645 33.0828 30.0645L32.3146 29.6876L33.6751 29.6202C34.3217 29.8896 34.5237 29.4316 34.5237 29.4316C34.6584 29.3642 35.1703 29.4586 35.1703 29.4586C35.0221 28.8928 34.4294 29.0814 34.4294 29.0814Z" fill="#464655"/>
</g>
<defs>
<clipPath id="clip0_93_4554">
<rect width="50" height="50" fill="white"/>
</clipPath>
</defs>
</svg>
