<svg width="50" height="50" viewBox="0 0 50 50" fill="none" xmlns="http://www.w3.org/2000/svg">
<g clip-path="url(#clip0_93_4672)">
<path d="M49.1371 41.3791H0.861375C0.385302 41.3791 -0.000732422 40.9931 -0.000732422 40.517V9.48271C-0.000732422 9.00664 0.385302 8.62061 0.861375 8.62061H49.1372C49.6132 8.62061 49.9993 9.00664 49.9993 9.48271V40.517C49.9992 40.9932 49.6131 41.3791 49.1371 41.3791Z" fill="#73AF00"/>
<path d="M21.5511 36.207C27.7406 36.207 32.7581 31.1894 32.7581 25C32.7581 18.8105 27.7406 13.793 21.5511 13.793C15.3617 13.793 10.3441 18.8105 10.3441 25C10.3441 31.1894 15.3617 36.207 21.5511 36.207Z" fill="#FF4B55"/>
</g>
<defs>
<clipPath id="clip0_93_4672">
<rect width="50" height="50" fill="white"/>
</clipPath>
</defs>
</svg>
