<svg width="50" height="50" viewBox="0 0 50 50" fill="none" xmlns="http://www.w3.org/2000/svg">
<g clip-path="url(#clip0_93_4678)">
<path d="M49.1384 41.3792H0.862718C0.386645 41.3792 0.000610352 40.9932 0.000610352 40.5171V9.48271C0.000610352 9.00664 0.386645 8.62061 0.862718 8.62061H49.1385C49.6146 8.62061 50.0006 9.00664 50.0006 9.48271V40.5171C50.0005 40.9933 49.6145 41.3792 49.1384 41.3792Z" fill="#F5F5F5"/>
<path d="M38.7941 8.62109H11.2083V41.3798H38.7941V8.62109Z" fill="#F5F5F5"/>
<path d="M0.862718 8.62061C0.386645 8.62061 0.000610352 9.00654 0.000610352 9.48262V40.517C0.000610352 40.9931 0.386645 41.3791 0.862718 41.3791H11.2075V8.62061H0.862718Z" fill="#FF4B55"/>
<path d="M49.1391 8.62061H38.7943V41.3791H49.1391C49.6152 41.3791 50.0012 40.9931 50.0012 40.517V9.48262C50.0012 9.00654 49.6152 8.62061 49.1391 8.62061Z" fill="#FF4B55"/>
<path d="M30.2326 28.7852L35.3481 25.8622L34.1743 25.2753C33.8451 25.1106 33.6566 24.7552 33.7053 24.3902L34.0872 21.5267L31.9215 22.1568C31.4431 22.2961 30.9466 22.0017 30.839 21.5153L30.6316 20.5778L28.5981 22.9577C28.3162 23.2876 27.7792 23.0356 27.8527 22.6079L28.7211 17.5583L27.3916 17.922C27.0032 18.0282 26.593 17.8515 26.4037 17.4962L25.0036 14.8721V14.8682L25.0026 14.8701L25.0015 14.8682V14.8721L23.6014 17.4962C23.4119 17.8514 23.0017 18.0281 22.6133 17.922L21.2837 17.5583L22.1521 22.6079C22.2256 23.0354 21.6885 23.2875 21.4066 22.9577L19.3731 20.5778L19.1657 21.5153C19.0581 22.0018 18.5616 22.296 18.0832 22.1568L15.9175 21.5267L16.2994 24.3902C16.3481 24.7551 16.1596 25.1106 15.8304 25.2753L14.6566 25.8622L19.7721 28.7853C20.302 29.0882 20.5342 29.7303 20.3205 30.3019L19.8832 31.4716L24.2665 31.0973C24.509 31.0766 24.7155 31.2719 24.7084 31.5152L24.5703 36.207H25.4324L25.2942 31.515C25.2871 31.2717 25.4935 31.0764 25.7361 31.0971L30.1214 31.4716L29.6841 30.3019C29.4706 29.7302 29.7027 29.088 30.2326 28.7852Z" fill="#FF4B55"/>
</g>
<defs>
<clipPath id="clip0_93_4678">
<rect width="50" height="50" fill="white"/>
</clipPath>
</defs>
</svg>
