<svg width="50" height="50" viewBox="0 0 50 50" fill="none" xmlns="http://www.w3.org/2000/svg">
<g clip-path="url(#clip0_93_4881)">
<path d="M49.1382 41.3792H0.862474C0.386401 41.3792 0.000366211 40.9932 0.000366211 40.5171V9.48271C0.000366211 9.00664 0.386401 8.62061 0.862474 8.62061H49.1383C49.6143 8.62061 50.0004 9.00664 50.0004 9.48271V40.5171C50.0003 40.9933 49.6142 41.3792 49.1382 41.3792Z" fill="#FF4B55"/>
<path d="M8.3013 13.7433L9.12317 16.2075L11.7208 16.2276C12.0572 16.2302 12.1966 16.6595 11.926 16.8592L9.83636 18.4022L10.6199 20.879C10.7212 21.1997 10.3562 21.4648 10.0825 21.2693L7.96927 19.7587L5.85599 21.2692C5.58236 21.4648 5.21732 21.1995 5.31869 20.8789L6.10218 18.4021L4.01254 16.8592C3.74194 16.6594 3.88139 16.2302 4.21772 16.2276L6.81537 16.2075L7.63724 13.7433C7.74369 13.4241 8.19495 13.4241 8.3013 13.7433Z" fill="#FFE15A"/>
<path d="M17.7341 14.3505L18.3235 15.1543L19.2745 14.8568C19.3977 14.8183 19.4989 14.9587 19.4236 15.0633L18.8413 15.872L19.4181 16.6846C19.4928 16.7898 19.3905 16.9295 19.2677 16.8902L18.3186 16.5864L17.7239 17.3861C17.647 17.4896 17.4824 17.4355 17.482 17.3066L17.4776 16.31L16.5332 15.9916C16.4111 15.9502 16.4115 15.7772 16.5341 15.7368L17.4804 15.4247L17.4915 14.4282C17.4929 14.2994 17.6578 14.2465 17.7341 14.3505Z" fill="#FFE15A"/>
<path d="M14.146 11.9552L15.1367 12.0628L15.5594 11.1604C15.6141 11.0436 15.786 11.0636 15.8124 11.1898L16.0161 12.1652L17.005 12.2883C17.133 12.3042 17.1671 12.4739 17.0551 12.5381L16.1903 13.0332L16.3789 14.0117C16.4033 14.1385 16.2524 14.2232 16.1568 14.1366L15.4186 13.4672L14.5464 13.9488C14.4335 14.0112 14.306 13.8938 14.359 13.7762L14.7675 12.8672L14.0397 12.1863C13.9456 12.0986 14.0178 11.9413 14.146 11.9552Z" fill="#FFE15A"/>
<path d="M15.7122 21.6128L15.1228 22.4165L14.1717 22.119C14.0486 22.0805 13.9473 22.221 14.0227 22.3256L14.6049 23.1343L14.0282 23.9468C13.9535 24.052 14.0557 24.1918 14.1786 24.1524L15.1277 23.8486L15.7223 24.6483C15.7993 24.7518 15.9638 24.6977 15.9643 24.5688L15.9687 23.5722L16.913 23.2538C17.0353 23.2125 17.0347 23.0394 16.9122 22.999L15.9659 22.6869L15.9547 21.6904C15.9532 21.5617 15.7884 21.5087 15.7122 21.6128Z" fill="#FFE15A"/>
<path d="M19.3001 19.3614L18.3094 19.469L17.8867 18.5666C17.832 18.4498 17.6601 18.4698 17.6337 18.5961L17.4299 19.5715L16.441 19.6945C16.313 19.7104 16.2789 19.8802 16.3909 19.9443L17.2557 20.4395L17.0671 21.418C17.0427 21.5447 17.1936 21.6295 17.2892 21.5429L18.0274 20.8734L18.8996 21.3551C19.0125 21.4175 19.14 21.3001 19.087 21.1824L18.6785 20.2734L19.4063 19.5926C19.5007 19.5049 19.4285 19.3476 19.3001 19.3614Z" fill="#FFE15A"/>
</g>
<defs>
<clipPath id="clip0_93_4881">
<rect width="50" height="50" fill="white"/>
</clipPath>
</defs>
</svg>
