<svg width="50" height="50" viewBox="0 0 50 50" fill="none" xmlns="http://www.w3.org/2000/svg">
<g clip-path="url(#clip0_93_4567)">
<path d="M49.1383 41.3792H0.862716C0.386644 41.3792 0.000610352 40.9931 0.000610352 40.5171V9.48271C0.000610352 9.00664 0.386644 8.62061 0.862716 8.62061H49.1384C49.6145 8.62061 50.0005 9.00664 50.0005 9.48271V40.5171C50.0004 40.9931 49.6144 41.3792 49.1383 41.3792Z" fill="#41479B"/>
<path d="M50.0004 9.48271C50.0004 9.00664 49.6144 8.62061 49.1383 8.62061H45.2814L29.3107 19.0841V8.62061H20.6901V19.0841L4.71954 8.62061H0.862716C0.386644 8.62061 0.000610352 9.00664 0.000610352 9.48271V11.7123L13.7026 20.6895H0.000610352V29.3102H13.7026L0.000610352 38.2875V40.5171C0.000610352 40.9931 0.386644 41.3792 0.862716 41.3792H4.71964L20.6903 30.9156V41.3792H29.3109V30.9156L45.2816 41.3792H49.1385C49.6146 41.3792 50.0006 40.9931 50.0006 40.5171V38.2875L36.2986 29.3103H50.0004V20.6896H36.2984L50.0004 11.7123V9.48271Z" fill="#F5F5F5"/>
<path d="M50.0004 22.4137H27.5867V8.62061H22.4143V22.4137H0.000610352V27.5861H22.4143V41.3792H27.5867V27.5861H50.0004V22.4137Z" fill="#FF4B55"/>
<path d="M17.4762 29.3101L0.0252686 40.6378C0.0863035 41.0542 0.429564 41.3791 0.862863 41.3791H2.05026L20.643 29.3102H17.4762V29.3101Z" fill="#FF4B55"/>
<path d="M33.828 29.3101H30.6613L49.2269 41.3612C49.6596 41.3151 50.0011 40.9618 50.0011 40.5168V39.8081L33.828 29.3101Z" fill="#FF4B55"/>
<path d="M0.0012207 10.4343L15.7999 20.6895H18.9667L0.503465 8.70459C0.208544 8.8416 0.0012207 9.13603 0.0012207 9.48261V10.4343Z" fill="#FF4B55"/>
<path d="M32.4784 20.6895L49.9712 9.33437C49.8986 8.93183 49.5626 8.62061 49.1391 8.62061H47.9041L29.3116 20.6895H32.4784Z" fill="#FF4B55"/>
</g>
<defs>
<clipPath id="clip0_93_4567">
<rect width="50" height="50" fill="white"/>
</clipPath>
</defs>
</svg>
