<svg width="50" height="50" viewBox="0 0 50 50" fill="none" xmlns="http://www.w3.org/2000/svg">
<g clip-path="url(#clip0_93_4867)">
<path d="M50.0001 12.2607H0.000244141V15.9004H50.0001V12.2607Z" fill="#F5F5F5"/>
<path d="M50.0004 19.54H0.000488281V23.1797H50.0004V19.54Z" fill="#F5F5F5"/>
<path d="M50.0004 26.8203H0.000488281V30.46H50.0004V26.8203Z" fill="#F5F5F5"/>
<path d="M50.0001 30.46H0.000244141V34.0996H50.0001V30.46Z" fill="#41479B"/>
<path d="M50.0001 34.0996H0.000244141V37.7393H50.0001V34.0996Z" fill="#F5F5F5"/>
<path d="M0.862596 41.3792H49.1384C49.6145 41.3792 50.0005 40.9932 50.0005 40.5171V37.7393H0.000488281V40.5171C0.000488281 40.9933 0.386523 41.3792 0.862596 41.3792Z" fill="#41479B"/>
<path d="M50.0001 12.2605V9.48271C50.0001 9.00664 49.6141 8.62061 49.138 8.62061H0.862352C0.386279 8.6207 0.000244141 9.00664 0.000244141 9.48271V15.9004V19.5401V26.8199H50.0001V23.18H17.2416V19.5402H50.0001V15.9004H17.2416V12.2605H50.0001Z" fill="#41479B"/>
<path d="M17.2416 15.9003H10.4408V8.62061H6.80101V15.9003H0.000244141V19.5401H6.80101V26.8198H10.4408V19.5401H17.2416V15.9003Z" fill="#F5F5F5"/>
</g>
<defs>
<clipPath id="clip0_93_4867">
<rect width="50" height="50" fill="white"/>
</clipPath>
</defs>
</svg>
