<svg width="50" height="50" viewBox="0 0 50 50" fill="none" xmlns="http://www.w3.org/2000/svg">
<g clip-path="url(#clip0_93_4842)">
<path d="M50.0005 19.5402H0.000610352V9.48271C0.000610352 9.00664 0.386645 8.62061 0.862718 8.62061H49.1385C49.6146 8.62061 50.0006 9.00664 50.0006 9.48271L50.0005 19.5402Z" fill="#FAB446"/>
<path d="M49.1384 41.3795H0.862718C0.386645 41.3795 0.000610352 40.9934 0.000610352 40.5174V30.46H50.0005V40.5174C50.0005 40.9935 49.6145 41.3795 49.1384 41.3795Z" fill="#73AF00"/>
<path d="M50.0005 19.54H0.000610352V30.459H50.0005V19.54Z" fill="#F5F5F5"/>
<path d="M25.0004 29.6339C22.4453 29.6339 20.3668 27.5554 20.3668 25.0003C20.3668 22.4452 22.4453 20.3667 25.0004 20.3667C27.5555 20.3667 29.634 22.4452 29.634 25.0003C29.634 27.5554 27.5555 29.6339 25.0004 29.6339ZM25.0004 21.2287C22.9205 21.2287 21.2288 22.9204 21.2288 25.0003C21.2288 27.0802 22.9205 28.7719 25.0004 28.7719C27.0803 28.7719 28.772 27.0802 28.772 25.0003C28.772 22.9204 27.0803 21.2287 25.0004 21.2287Z" fill="#41479B"/>
<path d="M25.0005 25.5257C25.2906 25.5257 25.5258 25.2905 25.5258 25.0004C25.5258 24.7103 25.2906 24.4751 25.0005 24.4751C24.7104 24.4751 24.4752 24.7103 24.4752 25.0004C24.4752 25.2905 24.7104 25.5257 25.0005 25.5257Z" fill="#41479B"/>
<path d="M25.0009 25.079L23.6659 25.2138L20.7983 25.079V24.9214L23.6659 24.7866L25.0009 24.9214V25.079Z" fill="#41479B"/>
<path d="M25.0009 25.079L26.3358 25.2138L29.2034 25.079V24.9214L26.3358 24.7866L25.0009 24.9214V25.079Z" fill="#41479B"/>
<path d="M24.9218 25.0004L24.787 23.6654L24.9218 20.7979H25.0794L25.2141 23.6654L25.0794 25.0004H24.9218Z" fill="#41479B"/>
<path d="M24.9218 25.0005L24.787 26.3354L24.9218 29.203H25.0794L25.2141 26.3354L25.0794 25.0005H24.9218Z" fill="#41479B"/>
<path d="M24.9451 25.0561L23.9058 24.2076L21.9734 22.0846L22.0848 21.9731L24.2079 23.9056L25.0564 24.9448L24.9451 25.0561Z" fill="#41479B"/>
<path d="M24.9452 25.0562L25.7937 26.0954L27.9168 28.0278L28.0282 27.9164L26.0958 25.7934L25.0565 24.9448L24.9452 25.0562Z" fill="#41479B"/>
<path d="M24.9452 24.9448L25.7937 23.9056L27.9168 21.9731L28.0282 22.0846L26.0958 24.2076L25.0565 25.0561L24.9452 24.9448Z" fill="#41479B"/>
<path d="M24.9451 24.9448L23.9058 25.7934L21.9734 27.9164L22.0848 28.0278L24.2079 26.0954L25.0564 25.0562L24.9451 24.9448Z" fill="#41479B"/>
<path d="M25.0307 25.0734L23.8489 25.7088L21.1481 26.6816L21.0878 26.536L23.6855 25.3142L24.9704 24.9277L25.0307 25.0734Z" fill="#41479B"/>
<path d="M25.0306 25.0732L26.3154 24.6868L28.9132 23.4649L28.8528 23.3193L26.152 24.2922L24.9702 24.9275L25.0306 25.0732Z" fill="#41479B"/>
<path d="M24.9275 25.0304L24.2922 23.8485L23.3193 21.1478L23.4649 21.0874L24.6868 23.6852L25.0732 24.97L24.9275 25.0304Z" fill="#41479B"/>
<path d="M24.9276 25.0306L25.314 26.3154L26.5359 28.9132L26.6815 28.8528L25.7087 26.152L25.0733 24.9702L24.9276 25.0306Z" fill="#41479B"/>
<path d="M24.9704 25.0732L23.6855 24.6868L21.0878 23.4649L21.1481 23.3193L23.8489 24.2922L25.0307 24.9275L24.9704 25.0732Z" fill="#41479B"/>
<path d="M24.9702 25.0734L26.152 25.7088L28.8528 26.6816L28.9132 26.536L26.3154 25.3142L25.0306 24.9277L24.9702 25.0734Z" fill="#41479B"/>
<path d="M24.9276 24.97L25.314 23.6852L26.5359 21.0874L26.6815 21.1478L25.7087 23.8485L25.0733 25.0304L24.9276 24.97Z" fill="#41479B"/>
<path d="M24.9275 24.9702L24.2922 26.152L23.3193 28.8528L23.4649 28.9132L24.6868 26.3154L25.0732 25.0306L24.9275 24.9702Z" fill="#41479B"/>
<path d="M25.0007 25.7087C25.3921 25.7087 25.7093 25.3914 25.7093 25.0001C25.7093 24.6088 25.3921 24.2915 25.0007 24.2915C24.6094 24.2915 24.2921 24.6088 24.2921 25.0001C24.2921 25.3914 24.6094 25.7087 25.0007 25.7087Z" fill="#F5F5F5"/>
<path d="M25.0007 25.425C25.2354 25.425 25.4256 25.2348 25.4256 25.0001C25.4256 24.7654 25.2354 24.5752 25.0007 24.5752C24.766 24.5752 24.5758 24.7654 24.5758 25.0001C24.5758 25.2348 24.766 25.425 25.0007 25.425Z" fill="#41479B"/>
</g>
<defs>
<clipPath id="clip0_93_4842">
<rect width="50" height="50" fill="white"/>
</clipPath>
</defs>
</svg>
