<svg width="50" height="50" viewBox="0 0 50 50" fill="none" xmlns="http://www.w3.org/2000/svg">
<g clip-path="url(#clip0_93_4632)">
<path d="M49.1393 41.3792H0.863573C0.387499 41.3792 0.00146484 40.9932 0.00146484 40.5171V9.48271C0.00146484 9.00664 0.387499 8.62061 0.863573 8.62061H49.1394C49.6154 8.62061 50.0015 9.00664 50.0015 9.48271V40.5171C50.0014 40.9933 49.6153 41.3792 49.1393 41.3792Z" fill="#F5F5F5"/>
<path d="M29.7871 17.8255C25.8259 15.1848 20.4756 16.2644 17.8365 20.2187C16.5128 22.1924 17.0509 24.8743 19.0314 26.1947C21.0104 27.5151 23.6837 26.9789 25.0041 24.9982C26.3245 23.0177 28.9996 22.4881 30.9785 23.8016C32.9607 25.122 33.4938 27.8039 32.1716 29.7776C34.8124 25.8167 33.7449 20.4663 29.7871 17.8255Z" fill="#FF4B55"/>
<path d="M17.8368 20.2188C16.513 22.1925 17.0511 24.8744 19.0316 26.1948C21.0106 27.5152 23.6839 26.979 25.0043 24.9983C26.3247 23.0178 28.9998 22.4882 30.9787 23.8017C32.9609 25.1221 33.494 27.804 32.1718 29.7777C29.5345 33.7457 24.186 34.8118 20.2247 32.171C16.2671 29.5304 15.196 24.18 17.8368 20.2188Z" fill="#41479B"/>
<path d="M34.1744 14.5698L35.7404 16.9235C35.8719 17.1212 35.8187 17.3882 35.6213 17.5203L35.2242 17.7863C35.0261 17.9189 34.7579 17.8656 34.6257 17.6671L33.0578 15.314C32.9259 15.1161 32.9794 14.8486 33.1773 14.7164L33.5763 14.45C33.7745 14.3177 34.0424 14.3713 34.1744 14.5698Z" fill="#464655"/>
<path d="M36.591 18.1985L38.162 20.5508C38.2946 20.7494 38.2404 21.0181 38.0412 21.1498L37.6424 21.4134C37.4445 21.5442 37.1781 21.4904 37.0464 21.2932L35.4763 18.9434C35.344 18.7456 35.3972 18.4779 35.5951 18.3456L35.993 18.0796C36.1909 17.9473 36.4587 18.0005 36.591 18.1985Z" fill="#464655"/>
<path d="M35.8513 13.4508L39.8385 19.4345C39.9705 19.6325 39.9169 19.9001 39.7189 20.0322L39.3183 20.2991C39.1202 20.4313 38.8526 20.3777 38.7205 20.1796L34.732 14.1963C34.5998 13.9982 34.6536 13.7304 34.8518 13.5985L35.2537 13.331C35.4518 13.1993 35.7193 13.2528 35.8513 13.4508Z" fill="#464655"/>
<path d="M37.5235 12.3335L39.0929 14.6918C39.2251 14.8904 39.1708 15.1586 38.9717 15.2901L38.5727 15.5538C38.3746 15.6847 38.1081 15.6308 37.9765 15.4333L36.406 13.0781C36.2738 12.8801 36.3275 12.6124 36.5255 12.4804L36.9258 12.2136C37.1237 12.0814 37.3915 12.135 37.5235 12.3335Z" fill="#464655"/>
<path d="M39.9413 15.9701L41.5082 18.3235C41.64 18.5213 41.5866 18.7885 41.389 18.9206L40.9911 19.1867C40.7929 19.3192 40.5248 19.2657 40.3927 19.0672L38.8258 16.7138C38.6941 16.516 38.7474 16.2488 38.945 16.1166L39.3429 15.8506C39.541 15.7181 39.8091 15.7715 39.9413 15.9701Z" fill="#464655"/>
<path d="M12.9638 28.7095L16.9505 34.6867C17.0825 34.8847 17.0292 35.1523 16.8311 35.2844L16.4319 35.551C16.2339 35.6832 15.9662 35.6298 15.834 35.4316L11.8473 29.4544C11.7152 29.2565 11.7686 28.9889 11.9666 28.8568L12.3658 28.5902C12.5639 28.4579 12.8316 28.5114 12.9638 28.7095Z" fill="#464655"/>
<path d="M11.2905 29.8277L12.8557 32.1755C12.9876 32.3733 12.9344 32.6404 12.7368 32.7727L12.3398 33.0385C12.1418 33.1711 11.8739 33.1178 11.7415 32.9197L10.1744 30.5725C10.0422 30.3746 10.0955 30.1069 10.2936 29.9747L10.6926 29.7083C10.8906 29.5761 11.1583 29.6296 11.2905 29.8277Z" fill="#464655"/>
<path d="M13.7091 33.4578L15.2761 35.8115C15.4079 36.0094 15.3545 36.2767 15.1567 36.4087L14.7585 36.6749C14.5603 36.8073 14.2925 36.7539 14.1602 36.5557L12.5923 34.2025C12.4603 34.0045 12.5138 33.737 12.7116 33.6049L13.1108 33.3383C13.3091 33.2059 13.5769 33.2595 13.7091 33.4578Z" fill="#464655"/>
<path d="M9.61654 30.9454L13.6007 36.9229C13.7326 37.1208 13.6792 37.3881 13.4817 37.5204L13.0835 37.7866C12.8855 37.919 12.6176 37.8657 12.4854 37.6674L8.49886 31.6907C8.36673 31.4926 8.42035 31.225 8.61839 31.0928L9.01898 30.8258C9.21683 30.6938 9.48451 30.7473 9.61654 30.9454Z" fill="#464655"/>
<path d="M11.8482 20.5512L15.8343 14.569C15.9665 14.3708 16.2342 14.3173 16.4324 14.4495L16.8315 14.716C17.0295 14.8481 17.0828 15.1157 16.9509 15.3137L12.9632 21.2925C12.8313 21.49 12.5646 21.5437 12.3667 21.4127L11.9691 21.1495C11.7701 21.0179 11.716 20.7496 11.8482 20.5512Z" fill="#464655"/>
<path d="M10.1737 19.4346L14.1605 13.4513C14.2927 13.2531 14.5606 13.1996 14.7588 13.332L15.1569 13.5982C15.3546 13.7303 15.4079 13.9975 15.276 14.1955L11.2903 20.179C11.1582 20.3773 10.8904 20.4309 10.6923 20.2986L10.293 20.0321C10.0952 19.9 10.0418 19.6326 10.1737 19.4346Z" fill="#464655"/>
<path d="M8.49812 18.3231L12.4853 12.3338C12.6174 12.1355 12.8855 12.0819 13.0837 12.2143L13.4818 12.4805C13.6795 12.6126 13.7328 12.8796 13.6011 13.0776L9.61638 19.0677C9.48444 19.266 9.21657 19.3197 9.01843 19.1876L8.61784 18.9206C8.41989 18.7886 8.36638 18.5211 8.49812 18.3231Z" fill="#464655"/>
<path d="M33.0587 34.6868L34.6258 32.3397C34.7581 32.1415 35.0261 32.0883 35.2241 32.2208L35.6211 32.4868C35.8187 32.619 35.8718 32.8862 35.74 33.084L34.1747 35.4317C34.0426 35.6298 33.7748 35.6833 33.5768 35.5511L33.1778 35.2847C32.9798 35.1525 32.9265 34.8849 33.0587 34.6868Z" fill="#464655"/>
<path d="M35.4758 31.0686L37.0454 28.7098C37.1774 28.5116 37.4452 28.4579 37.6433 28.59L38.0433 28.8566C38.2415 28.9887 38.295 29.2566 38.1628 29.4547L36.5898 31.8097C36.4579 32.0073 36.1912 32.0608 35.9933 31.9296L35.5966 31.6667C35.3978 31.5349 35.3437 31.267 35.4758 31.0686Z" fill="#464655"/>
<path d="M34.7319 35.8105L36.3 33.4572C36.432 33.2591 36.6997 33.2055 36.8978 33.3376L37.2986 33.6049C37.4966 33.7369 37.5501 34.0043 37.4182 34.2024L35.8511 36.556C35.7192 36.7541 35.4517 36.8078 35.2535 36.6759L34.8516 36.4084C34.6536 36.2765 34.5999 36.0087 34.7319 35.8105Z" fill="#464655"/>
<path d="M37.152 32.1742L38.7209 29.8263C38.8531 29.6286 39.1205 29.5753 39.3185 29.7072L39.719 29.9742C39.9172 30.1063 39.9707 30.3742 39.8383 30.5722L38.2694 32.9201C38.1373 33.1178 37.8698 33.1712 37.672 33.0392L37.2713 32.7722C37.073 32.6403 37.0195 32.3723 37.152 32.1742Z" fill="#464655"/>
<path d="M36.4062 36.9221L37.9761 34.5729C38.1079 34.3758 38.3742 34.322 38.5721 34.4528L38.9711 34.7165C39.1702 34.8481 39.2245 35.1166 39.0921 35.3152L37.5234 37.6675C37.3914 37.8656 37.1237 37.919 36.9257 37.7871L36.5254 37.5203C36.3272 37.3881 36.2738 37.1202 36.4062 36.9221Z" fill="#464655"/>
<path d="M38.8264 33.2981L40.3923 30.9461C40.5244 30.7478 40.7925 30.6941 40.9906 30.8267L41.3883 31.0925C41.586 31.2247 41.6392 31.4922 41.5072 31.69L39.9399 34.039C39.8082 34.2366 39.5412 34.2902 39.3432 34.159L38.9468 33.8963C38.7482 33.7646 38.6942 33.4966 38.8264 33.2981Z" fill="#464655"/>
</g>
<defs>
<clipPath id="clip0_93_4632">
<rect width="50" height="50" fill="white"/>
</clipPath>
</defs>
</svg>
