<svg width="50" height="50" viewBox="0 0 50 50" fill="none" xmlns="http://www.w3.org/2000/svg">
<g clip-path="url(#clip0_93_4534)">
<path d="M49.1391 41.3792H0.863451C0.387377 41.3792 0.00134277 40.9932 0.00134277 40.5171V9.48271C0.00134277 9.00664 0.387377 8.62061 0.863451 8.62061H49.1392C49.6153 8.62061 50.0013 9.00664 50.0013 9.48271V40.5171C50.0012 40.9933 49.6152 41.3792 49.1391 41.3792Z" fill="#FF4B55"/>
<path d="M18.1047 8.62109H0.863451C0.387377 8.62109 0.00134277 9.00703 0.00134277 9.4831V40.5175C0.00134277 40.9936 0.387377 41.3796 0.863451 41.3796H18.1048V8.62109H18.1047Z" fill="#73AF00"/>
<path d="M18.1118 32.7519C22.3931 32.7519 25.8637 29.2813 25.8637 25C25.8637 20.7187 22.3931 17.248 18.1118 17.248C13.8305 17.248 10.3599 20.7187 10.3599 25C10.3599 29.2813 13.8305 32.7519 18.1118 32.7519Z" fill="#FFE15A"/>
<path d="M20.6978 22.4141V25.8623C20.6978 27.2884 19.5377 28.4485 18.1116 28.4485C16.6855 28.4485 15.5254 27.2884 15.5254 25.8623V22.4141H20.6978ZM21.5598 20.6899H14.6633C14.1872 20.6899 13.8011 21.076 13.8011 21.552V25.8624C13.8011 28.2429 15.731 30.1727 18.1115 30.1727C20.492 30.1727 22.4218 28.2429 22.4218 25.8624V21.552C22.4219 21.076 22.0359 20.6899 21.5598 20.6899Z" fill="#FF4B55"/>
<path d="M20.6978 22.4141V25.8623C20.6978 27.2884 19.5377 28.4485 18.1116 28.4485C16.6855 28.4485 15.5254 27.2884 15.5254 25.8623V22.4141H20.6978Z" fill="#F5F5F5"/>
<path d="M14.6548 21.9827C14.8929 21.9827 15.0859 21.7897 15.0859 21.5517C15.0859 21.3136 14.8929 21.1206 14.6548 21.1206C14.4167 21.1206 14.2238 21.3136 14.2238 21.5517C14.2238 21.7897 14.4167 21.9827 14.6548 21.9827Z" fill="#FFE15A"/>
<path d="M21.551 21.9827C21.7891 21.9827 21.9821 21.7897 21.9821 21.5517C21.9821 21.3136 21.7891 21.1206 21.551 21.1206C21.313 21.1206 21.12 21.3136 21.12 21.5517C21.12 21.7897 21.313 21.9827 21.551 21.9827Z" fill="#FFE15A"/>
<path d="M14.6548 25.431C14.8929 25.431 15.0859 25.238 15.0859 24.9999C15.0859 24.7618 14.8929 24.5688 14.6548 24.5688C14.4167 24.5688 14.2238 24.7618 14.2238 24.9999C14.2238 25.238 14.4167 25.431 14.6548 25.431Z" fill="#FFE15A"/>
<path d="M21.551 25.431C21.7891 25.431 21.9821 25.238 21.9821 24.9999C21.9821 24.7618 21.7891 24.5688 21.551 24.5688C21.313 24.5688 21.12 24.7618 21.12 24.9999C21.12 25.238 21.313 25.431 21.551 25.431Z" fill="#FFE15A"/>
<path d="M18.1031 21.9827C18.3411 21.9827 18.5341 21.7897 18.5341 21.5517C18.5341 21.3136 18.3411 21.1206 18.1031 21.1206C17.865 21.1206 17.672 21.3136 17.672 21.5517C17.672 21.7897 17.865 21.9827 18.1031 21.9827Z" fill="#FFE15A"/>
<path d="M20.6909 28.6097C20.929 28.6097 21.122 28.4167 21.122 28.1786C21.122 27.9405 20.929 27.7476 20.6909 27.7476C20.4529 27.7476 20.2599 27.9405 20.2599 28.1786C20.2599 28.4167 20.4529 28.6097 20.6909 28.6097Z" fill="#FFE15A"/>
<path d="M15.5661 28.6097C15.8041 28.6097 15.9971 28.4167 15.9971 28.1786C15.9971 27.9405 15.8041 27.7476 15.5661 27.7476C15.328 27.7476 15.135 27.9405 15.135 28.1786C15.135 28.4167 15.328 28.6097 15.5661 28.6097Z" fill="#FFE15A"/>
<path d="M18.6673 24.7812V25.5236C18.6673 25.8307 18.4175 26.0805 18.1104 26.0805C17.8034 26.0805 17.5536 25.8307 17.5536 25.5236V24.7812H18.6673Z" fill="#41479B"/>
<path d="M18.6673 23.0215V23.7639C18.6673 24.0709 18.4175 24.3207 18.1104 24.3207C17.8034 24.3207 17.5536 24.0709 17.5536 23.7639V23.0215H18.6673Z" fill="#41479B"/>
<path d="M18.6673 26.5596V27.3019C18.6673 27.609 18.4175 27.8588 18.1104 27.8588C17.8034 27.8588 17.5536 27.609 17.5536 27.3019V26.5596H18.6673Z" fill="#41479B"/>
<path d="M20.1671 24.7812V25.5236C20.1671 25.8307 19.9173 26.0805 19.6103 26.0805C19.3033 26.0805 19.0535 25.8307 19.0535 25.5236V24.7812H20.1671Z" fill="#41479B"/>
<path d="M17.1676 24.7812V25.5236C17.1676 25.8307 16.9178 26.0805 16.6108 26.0805C16.3038 26.0805 16.054 25.8307 16.054 25.5236V24.7812H17.1676Z" fill="#41479B"/>
</g>
<defs>
<clipPath id="clip0_93_4534">
<rect width="50" height="50" fill="white"/>
</clipPath>
</defs>
</svg>
