<svg width="50" height="50" viewBox="0 0 50 50" fill="none" xmlns="http://www.w3.org/2000/svg">
<g clip-path="url(#clip0_93_4557)">
<path d="M50.0005 25H0.000610352V9.48271C0.000610352 9.00664 0.386645 8.62061 0.862718 8.62061H49.1385C49.6146 8.62061 50.0006 9.00664 50.0006 9.48271L50.0005 25Z" fill="#FF4B55"/>
<path d="M0.0012207 25.0005H50.0011V40.5177C50.0011 40.9938 49.6151 41.3799 49.139 41.3799H0.863328C0.387255 41.3799 0.0012207 40.9938 0.0012207 40.5177V25.0005Z" fill="#F5F5F5"/>
<path d="M7.08808 16.8228C7.08808 13.9881 9.16815 11.6382 11.8843 11.2035C12.0317 11.1799 12.0384 10.977 11.8929 10.9434C11.2204 10.7889 10.5062 10.7448 9.76463 10.8458C6.83515 11.2448 4.5707 13.78 4.52929 16.7362C4.48212 20.1118 7.20341 22.8604 10.563 22.8604C11.0203 22.8604 11.4643 22.807 11.8917 22.7087C12.0371 22.6753 12.0298 22.4719 11.8825 22.4483C9.16747 22.0139 7.08808 19.6686 7.08808 16.8228Z" fill="#F5F5F5"/>
<path d="M11.9288 18.3394L11.6736 19.1046L10.8671 19.1109C10.7627 19.1118 10.7193 19.245 10.8034 19.307L11.4522 19.7862L11.2089 20.5552C11.1774 20.6548 11.2908 20.7372 11.3757 20.6764L12.0319 20.2074L12.6882 20.6764C12.7731 20.7372 12.8864 20.6547 12.855 20.5552L12.6116 19.7862L13.2604 19.307C13.3445 19.2449 13.3011 19.1118 13.1967 19.1109L12.3902 19.1046L12.135 18.3394C12.1019 18.2404 11.9618 18.2404 11.9288 18.3394Z" fill="#F5F5F5"/>
<path d="M15.9161 18.3394L15.6609 19.1046L14.8544 19.1109C14.75 19.1118 14.7066 19.245 14.7907 19.307L15.4395 19.7862L15.1962 20.5552C15.1647 20.6548 15.2781 20.7372 15.363 20.6764L16.0192 20.2074L16.6755 20.6764C16.7604 20.7372 16.8737 20.6547 16.8423 20.5552L16.5989 19.7862L17.2477 19.307C17.3318 19.2449 17.2885 19.1118 17.1841 19.1109L16.3775 19.1046L16.1223 18.3394C16.0892 18.2404 15.9492 18.2404 15.9161 18.3394Z" fill="#F5F5F5"/>
<path d="M13.9403 12.1866L13.6851 12.9518L12.8785 12.9581C12.7741 12.9589 12.7308 13.0921 12.8149 13.1541L13.4637 13.6333L13.2203 14.4024C13.1889 14.502 13.3023 14.5843 13.3871 14.5236L14.0434 14.0545L14.6996 14.5236C14.7846 14.5843 14.8979 14.5019 14.8664 14.4024L14.6231 13.6333L15.2719 13.1541C15.356 13.092 15.3126 12.9589 15.2082 12.9581L14.4017 12.9518L14.1465 12.1866C14.1134 12.0875 13.9733 12.0875 13.9403 12.1866Z" fill="#F5F5F5"/>
<path d="M10.7614 14.544L10.5063 15.3092L9.69971 15.3155C9.59532 15.3164 9.55196 15.4496 9.63604 15.5116L10.2849 15.9908L10.0415 16.7598C10.0101 16.8594 10.1234 16.9417 10.2083 16.881L10.8646 16.412L11.5208 16.881C11.6058 16.9417 11.719 16.8593 11.6876 16.7598L11.4442 15.9908L12.0931 15.5116C12.1771 15.4495 12.1338 15.3164 12.0294 15.3155L11.2229 15.3092L10.9677 14.544C10.9346 14.445 10.7945 14.445 10.7614 14.544Z" fill="#F5F5F5"/>
<path d="M17.0925 14.544L16.8373 15.3092L16.0308 15.3155C15.9264 15.3164 15.883 15.4496 15.9671 15.5116L16.6159 15.9908L16.3726 16.7598C16.3411 16.8594 16.4545 16.9417 16.5394 16.881L17.1956 16.412L17.8519 16.881C17.9368 16.9417 18.0501 16.8593 18.0187 16.7598L17.7753 15.9908L18.4241 15.5116C18.5082 15.4495 18.4648 15.3164 18.3604 15.3155L17.5539 15.3092L17.2987 14.544C17.2656 14.445 17.1255 14.445 17.0925 14.544Z" fill="#F5F5F5"/>
</g>
<defs>
<clipPath id="clip0_93_4557">
<rect width="50" height="50" fill="white"/>
</clipPath>
</defs>
</svg>
