<svg width="50" height="50" viewBox="0 0 50 50" fill="none" xmlns="http://www.w3.org/2000/svg">
<g clip-path="url(#clip0_93_4584)">
<path d="M0.863817 41.3792H49.1396C49.6157 41.3792 50.0017 40.9932 50.0017 40.5171V9.48271C50.0017 9.00664 49.6157 8.62061 49.1396 8.62061H0.863817C0.387743 8.6207 0.00170898 9.00664 0.00170898 9.48271V40.5171C0.00170898 40.9933 0.387743 41.3792 0.863817 41.3792Z" fill="#C8414B"/>
<path d="M50.0016 15.5176H0.00170898V34.4834H50.0016V15.5176Z" fill="#FFD250"/>
<path d="M21.1222 25L21.8531 21.7108C21.9205 21.4079 21.69 21.1206 21.3796 21.1206H20.8648C20.5545 21.1206 20.324 21.4079 20.3912 21.7108L21.1222 25Z" fill="#C8414B"/>
<path d="M21.9844 23.2754H20.2603V30.6025H21.9844V23.2754Z" fill="#F5F5F5"/>
<path d="M22.4147 22.4141H19.8285V23.2762H22.4147V22.4141Z" fill="#FAB446"/>
<path d="M22.4171 25H18.1066V25.8621H22.4171V25Z" fill="#C8414B"/>
<path d="M22.417 28.4482L19.8308 27.5862V26.7241L22.417 27.5862V28.4482Z" fill="#C8414B"/>
<path d="M8.19286 25L8.92381 21.7108C8.9912 21.4079 8.76063 21.1206 8.45028 21.1206H7.93544C7.62518 21.1206 7.39472 21.4079 7.4619 21.7108L8.19286 25Z" fill="#C8414B"/>
<path d="M11.2088 22.4141C10.7327 22.4141 10.3467 22.8001 10.3467 23.2762V28.8796C10.3467 29.9269 11.3242 31.8969 14.657 31.8969C17.9898 31.8969 18.9674 29.927 18.9674 28.8796V23.2762C18.9674 22.8001 18.5813 22.4141 18.1053 22.4141H11.2088Z" fill="#F5F5F5"/>
<path d="M14.6582 26.7244H10.3479V23.2762C10.3479 22.8001 10.7339 22.4141 11.21 22.4141H14.6582V26.7244Z" fill="#C8414B"/>
<path d="M14.6583 26.7246H18.9687V28.8798C18.9687 30.0701 18.0038 31.035 16.8135 31.035C15.6232 31.035 14.6583 30.0701 14.6583 28.8798V26.7246Z" fill="#C8414B"/>
<path d="M10.3467 26.7241H14.657V28.8793C14.657 30.0696 13.6922 31.0345 12.5019 31.0345C11.3115 31.0345 10.3467 30.0696 10.3467 28.8793V26.7241Z" fill="#FAB446"/>
<path d="M13.7931 30.5937V26.7241H12.931V30.991C13.2517 30.926 13.5415 30.784 13.7931 30.5937Z" fill="#C8414B"/>
<path d="M12.069 30.991V26.7241H11.2069V30.5937C11.4587 30.784 11.7484 30.926 12.069 30.991Z" fill="#C8414B"/>
<path d="M13.795 25H11.2087V25.8621H13.795V25Z" fill="#FFB441"/>
<path d="M13.795 23.2754H11.2087V24.1375H13.795V23.2754Z" fill="#FAB446"/>
<path d="M13.3629 23.7881H11.6388V25.3498H13.3629V23.7881Z" fill="#FAB446"/>
<path d="M9.05273 23.2754H7.32861V30.6025H9.05273V23.2754Z" fill="#F5F5F5"/>
<path d="M9.48247 30.1729H6.89624V31.035H9.48247V30.1729Z" fill="#FAB446"/>
<path d="M9.48247 22.4141H6.89624V23.2762H9.48247V22.4141Z" fill="#FAB446"/>
<path d="M9.91577 31.0342H6.46753V31.8963H9.91577V31.0342Z" fill="#5064AA"/>
<path d="M22.8465 30.1729H20.2603V31.035H22.8465V30.1729Z" fill="#FAB446"/>
<path d="M22.8461 31.0342H19.3978V31.8963H22.8461V31.0342Z" fill="#5064AA"/>
<path d="M17.2433 21.5518H12.0708V22.4139H17.2433V21.5518Z" fill="#FAB446"/>
<path d="M15.0883 18.9658H14.2262V21.552H15.0883V18.9658Z" fill="#FFB441"/>
<path d="M13.7947 20.259C13.0816 20.259 12.5016 19.6789 12.5016 18.9659C12.5016 18.2528 13.0817 17.6729 13.7947 17.6729C14.5077 17.6729 15.0877 18.2529 15.0877 18.9659C15.0878 19.6789 14.5077 20.259 13.7947 20.259ZM13.7947 18.5349C13.5569 18.5349 13.3636 18.728 13.3636 18.9659C13.3636 19.2037 13.5568 19.397 13.7947 19.397C14.0325 19.397 14.2257 19.2038 14.2257 18.9659C14.2257 18.7281 14.0325 18.5349 13.7947 18.5349Z" fill="#F5F5F5"/>
<path d="M15.5188 20.259C14.8057 20.259 14.2257 19.6789 14.2257 18.9659C14.2257 18.2528 14.8058 17.6729 15.5188 17.6729C16.2319 17.6729 16.8118 18.2529 16.8118 18.9659C16.8118 19.6789 16.2318 20.259 15.5188 20.259ZM15.5188 18.5349C15.281 18.5349 15.0877 18.728 15.0877 18.9659C15.0877 19.2037 15.2809 19.397 15.5188 19.397C15.7566 19.397 15.9498 19.2038 15.9498 18.9659C15.9497 18.7281 15.7566 18.5349 15.5188 18.5349Z" fill="#F5F5F5"/>
<path d="M17.2431 21.1213C16.5301 21.1213 15.9501 20.5412 15.9501 19.8282C15.9501 19.1151 16.5301 18.5352 17.2431 18.5352C17.9562 18.5352 18.5362 19.1152 18.5362 19.8282C18.5362 20.5412 17.9561 21.1213 17.2431 21.1213ZM17.2431 19.3972C17.0053 19.3972 16.8121 19.5903 16.8121 19.8282C16.8121 20.066 17.0052 20.2593 17.2431 20.2593C17.4809 20.2593 17.6742 20.0661 17.6742 19.8282C17.6742 19.5903 17.4809 19.3972 17.2431 19.3972Z" fill="#F5F5F5"/>
<path d="M12.0705 21.1213C11.3574 21.1213 10.7775 20.5412 10.7775 19.8282C10.7775 19.1151 11.3575 18.5352 12.0705 18.5352C12.7836 18.5352 13.3636 19.1152 13.3636 19.8282C13.3637 20.5412 12.7836 21.1213 12.0705 21.1213ZM12.0705 19.3972C11.8327 19.3972 11.6395 19.5903 11.6395 19.8282C11.6395 20.066 11.8326 20.2593 12.0705 20.2593C12.3084 20.2593 12.5016 20.066 12.5016 19.8281C12.5016 19.5903 12.3084 19.3972 12.0705 19.3972Z" fill="#F5F5F5"/>
<path d="M17.2428 28.4484V28.8795C17.2428 29.1172 17.0494 29.3105 16.8117 29.3105C16.574 29.3105 16.3807 29.1172 16.3807 28.8795V28.4484H17.2428ZM18.1048 27.5864H15.5186V28.8795C15.5186 29.5926 16.0986 30.1726 16.8116 30.1726C17.5247 30.1726 18.1047 29.5925 18.1047 28.8795V27.5864H18.1048Z" fill="#FAB446"/>
<path d="M16.8122 25.8622C16.3361 25.8622 15.9501 25.4762 15.9501 25.0001V24.138C15.9501 23.6619 16.3361 23.2759 16.8122 23.2759C17.2883 23.2759 17.6743 23.6619 17.6743 24.138V25.0001C17.6743 25.4762 17.2883 25.8622 16.8122 25.8622Z" fill="#FFA0D2"/>
<path d="M14.6568 28.0168C15.371 28.0168 15.9499 27.4379 15.9499 26.7237C15.9499 26.0096 15.371 25.4307 14.6568 25.4307C13.9427 25.4307 13.3638 26.0096 13.3638 26.7237C13.3638 27.4379 13.9427 28.0168 14.6568 28.0168Z" fill="#5064AA"/>
<path d="M15.0883 17.2412H14.2262V19.8274H15.0883V17.2412Z" fill="#FAB446"/>
<path d="M12.0702 21.552L11.2081 20.6899L11.7131 20.185C12.4937 19.4044 13.5525 18.9658 14.6565 18.9658C15.7605 18.9658 16.8192 19.4044 17.5998 20.185L18.1048 20.6899L17.2427 21.552H12.0702Z" fill="#C8414B"/>
<path d="M14.6557 21.1204C14.8937 21.1204 15.0867 20.9274 15.0867 20.6894C15.0867 20.4513 14.8937 20.2583 14.6557 20.2583C14.4176 20.2583 14.2246 20.4513 14.2246 20.6894C14.2246 20.9274 14.4176 21.1204 14.6557 21.1204Z" fill="#FFD250"/>
<path d="M12.9311 21.1204C13.1691 21.1204 13.3621 20.9274 13.3621 20.6894C13.3621 20.4513 13.1691 20.2583 12.9311 20.2583C12.693 20.2583 12.5 20.4513 12.5 20.6894C12.5 20.9274 12.693 21.1204 12.9311 21.1204Z" fill="#FFD250"/>
<path d="M16.3793 21.1204C16.6174 21.1204 16.8103 20.9274 16.8103 20.6894C16.8103 20.4513 16.6174 20.2583 16.3793 20.2583C16.1412 20.2583 15.9482 20.4513 15.9482 20.6894C15.9482 20.9274 16.1412 21.1204 16.3793 21.1204Z" fill="#FFD250"/>
<path d="M11.2068 25H6.89624V25.8621H11.2068V25Z" fill="#C8414B"/>
<path d="M6.89624 28.4482L9.48237 27.5862V26.7241L6.89624 27.5862V28.4482Z" fill="#C8414B"/>
</g>
<defs>
<clipPath id="clip0_93_4584">
<rect width="50" height="50" fill="white"/>
</clipPath>
</defs>
</svg>
