<svg width="50" height="50" viewBox="0 0 50 50" fill="none" xmlns="http://www.w3.org/2000/svg">
<g clip-path="url(#clip0_93_4835)">
<path d="M49.1388 41.3792H0.863084C0.387011 41.3792 0.000976562 40.9932 0.000976562 40.5171V9.48271C0.000976562 9.00664 0.387011 8.62061 0.863084 8.62061H49.1389C49.6149 8.62061 50.001 9.00664 50.001 9.48271V40.5171C50.0009 40.9933 49.6148 41.3792 49.1388 41.3792Z" fill="#FF4B55"/>
<path d="M12.9611 24.9999C12.9611 28.8114 16.0502 31.9006 19.8583 31.9006C21.2775 31.9006 22.5862 31.4645 23.6763 30.7253C23.8414 30.6134 24.0321 30.8292 23.8939 30.9731C22.3301 32.602 20.14 33.6207 17.7032 33.6207C12.7564 33.6207 8.78312 29.4505 9.10411 24.4326C9.38448 20.0518 13.0165 16.5342 17.4038 16.3845C19.9575 16.2973 22.2606 17.3294 23.888 19.0213C24.0275 19.1664 23.8372 19.3855 23.6705 19.2726C22.5816 18.5351 21.2751 18.0994 19.8583 18.0994C16.0503 18.0994 12.9611 21.1954 12.9611 24.9999Z" fill="#F5F5F5"/>
<path d="M28.6819 23.8139L27.3307 22.0463C27.2552 21.9474 27.0972 22.0016 27.0983 22.126L27.1181 24.3509L25.0193 25.0898C24.902 25.1311 24.9048 25.298 25.0234 25.3354L27.1455 26.0042L27.1997 28.2286C27.2027 28.3529 27.3625 28.4018 27.4347 28.3005L28.7265 26.489L30.8587 27.1249C30.9778 27.1604 31.0737 27.0238 30.9997 26.9238L29.676 25.1353L30.9395 23.304C31.0103 23.2016 30.9099 23.0682 30.7919 23.1077L28.6819 23.8139Z" fill="#F5F5F5"/>
</g>
<defs>
<clipPath id="clip0_93_4835">
<rect width="50" height="50" fill="white"/>
</clipPath>
</defs>
</svg>
