<svg width="62" height="62" viewBox="0 0 62 62" fill="none" xmlns="http://www.w3.org/2000/svg">
<g id="Coins">
<path id="Vector" opacity="0.2" d="M58.125 31.9688C58.125 36.7834 49.4498 40.6875 38.75 40.6875C34.0031 40.6875 29.6534 39.9198 26.2846 38.6434C35.5434 37.9871 42.625 34.3906 42.625 30.0312V23.4244C51.4697 24.2333 58.125 27.7498 58.125 31.9688ZM42.625 20.3438C42.625 15.5291 33.9498 11.625 23.25 11.625C12.5502 11.625 3.875 15.5291 3.875 20.3438C3.875 25.1584 12.5502 29.0625 23.25 29.0625C33.9498 29.0625 42.625 25.1584 42.625 20.3438Z" fill="white"/>
<path id="Vector_2" d="M44.5625 21.6927V20.3438C44.5625 14.2697 35.4005 9.6875 23.25 9.6875C11.0995 9.6875 1.9375 14.2697 1.9375 20.3438V30.0312C1.9375 35.0905 8.29492 39.1109 17.4375 40.3145V41.6562C17.4375 47.7303 26.5995 52.3125 38.75 52.3125C50.9005 52.3125 60.0625 47.7303 60.0625 41.6562V31.9688C60.0625 26.9555 53.9061 22.9303 44.5625 21.6927ZM56.1875 31.9688C56.1875 35.1705 48.7305 38.75 38.75 38.75C37.8466 38.75 36.9505 38.7185 36.0666 38.6604C41.2905 36.7568 44.5625 33.6641 44.5625 30.0312V25.6089C51.7966 26.6866 56.1875 29.6123 56.1875 31.9688ZM17.4375 36.3887V30.627C19.3648 30.8782 21.3064 31.0027 23.25 31C25.1936 31.0027 27.1352 30.8782 29.0625 30.627V36.3887C27.1381 36.673 25.1953 36.8146 23.25 36.8125C21.3047 36.8146 19.3619 36.673 17.4375 36.3887ZM40.6875 26.6237V30.0312C40.6875 32.0632 37.682 34.2453 32.9375 35.5701V29.9102C36.0641 29.1521 38.7113 28.0235 40.6875 26.6237ZM23.25 13.5625C33.2305 13.5625 40.6875 17.142 40.6875 20.3438C40.6875 23.5455 33.2305 27.125 23.25 27.125C13.2695 27.125 5.8125 23.5455 5.8125 20.3438C5.8125 17.142 13.2695 13.5625 23.25 13.5625ZM5.8125 30.0312V26.6237C7.78875 28.0235 10.4359 29.1521 13.5625 29.9102V35.5701C8.81805 34.2453 5.8125 32.0632 5.8125 30.0312ZM21.3125 41.6562V40.6463C21.9495 40.6705 22.5937 40.6875 23.25 40.6875C24.1897 40.6875 25.1076 40.656 26.0085 40.6027C27.0094 40.961 28.0289 41.265 29.0625 41.5134V47.1951C24.318 45.8703 21.3125 43.6882 21.3125 41.6562ZM32.9375 48.0137V42.2375C34.8642 42.4965 36.806 42.626 38.75 42.625C40.6936 42.6277 42.6352 42.5032 44.5625 42.252V48.0137C40.7081 48.5788 36.7919 48.5788 32.9375 48.0137ZM48.4375 47.1951V41.5352C51.5641 40.7771 54.2113 39.6485 56.1875 38.2487V41.6562C56.1875 43.6882 53.182 45.8703 48.4375 47.1951Z" fill="white"/>
</g>
</svg>
