<svg width="441" height="460" viewBox="0 0 441 460" fill="none" xmlns="http://www.w3.org/2000/svg">
<g opacity="0.1" clip-path="url(#clip0_54_1510)">
<path d="M234.292 452.921C234.054 448.899 237.109 445.459 241.016 445.265H241.063C244.974 445.024 248.36 448.123 248.597 452.145C248.788 456.12 245.785 459.56 241.826 459.801C241.687 459.801 241.542 459.801 241.445 459.801C237.631 459.801 234.483 456.797 234.292 452.921Z" fill="#231F20"/>
<path d="M192.949 457.185C189.042 456.508 186.416 452.775 187.04 448.852C187.659 444.877 191.329 442.166 195.24 442.795C199.152 443.472 201.774 447.201 201.154 451.175C200.582 454.715 197.527 457.279 194.095 457.279C193.713 457.279 193.331 457.232 192.949 457.185Z" fill="#231F20"/>
<path d="M281.311 446.671C280.263 442.795 282.503 438.821 286.27 437.756C290.084 436.639 294.042 438.915 295.09 442.795C296.142 446.671 293.898 450.645 290.131 451.757C289.465 451.904 288.845 451.999 288.179 451.999C285.078 451.999 282.168 449.869 281.311 446.671Z" fill="#231F20"/>
<path d="M145.744 443.955C142.07 442.455 140.305 438.239 141.739 434.51C143.215 430.777 147.364 428.936 151.034 430.436C154.708 431.893 156.52 436.109 155.043 439.885C153.944 442.696 151.225 444.442 148.412 444.442C147.509 444.442 146.647 444.295 145.744 443.955Z" fill="#231F20"/>
<path d="M325.894 430.294C324.036 426.754 325.373 422.344 328.851 420.456C332.334 418.568 336.674 419.922 338.533 423.461C340.391 426.996 339.059 431.406 335.575 433.299C334.528 433.829 333.336 434.122 332.237 434.122C329.661 434.122 327.184 432.717 325.894 430.294Z" fill="#231F20"/>
<path d="M101.691 421.853C97.7402 419.179 96.712 413.71 99.3999 409.758C102.032 405.744 107.413 404.699 111.302 407.43C115.253 410.105 116.281 415.516 113.594 419.525C111.934 422.029 109.246 423.363 106.497 423.363C104.837 423.363 103.177 422.898 101.691 421.853Z" fill="#231F20"/>
<path d="M365.951 404.515C363.376 401.463 363.758 396.858 366.762 394.242C369.765 391.625 374.296 392.013 376.872 395.065C379.4 398.117 379.065 402.721 376.061 405.338C374.678 406.502 373.058 407.037 371.386 407.037C369.383 407.037 367.381 406.161 365.951 404.515Z" fill="#231F20"/>
<path d="M65.1544 388.479C62.4349 385.616 62.5327 381.017 65.4432 378.206C68.3024 375.442 72.8334 375.589 75.5483 378.494C78.2678 381.404 78.1235 386.004 75.2642 388.767C73.8812 390.125 72.1163 390.755 70.3514 390.755C68.4468 390.755 66.5841 390.026 65.1544 388.479Z" fill="#231F20"/>
<path d="M399.666 370.597C396.518 368.174 395.899 363.617 398.283 360.423C400.667 357.225 405.198 356.595 408.342 359.018C411.443 361.441 412.062 365.993 409.678 369.191C408.295 371.079 406.148 372.097 404.006 372.097C402.479 372.097 400.951 371.614 399.666 370.597Z" fill="#231F20"/>
<path d="M35.449 348.987C33.3954 345.547 34.4944 341.089 37.8798 339.007C41.2653 336.92 45.6519 338.037 47.7009 341.477C49.7545 344.87 48.6555 349.375 45.2701 351.457C44.1245 352.138 42.8393 352.474 41.6006 352.474C39.1651 352.474 36.8321 351.263 35.449 348.987Z" fill="#231F20"/>
<path d="M425.465 330.139C421.837 328.441 420.314 324.13 421.981 320.496C423.602 316.862 427.895 315.262 431.472 316.956C435.048 318.655 436.622 322.966 434.95 326.6C433.712 329.264 431.137 330.816 428.468 330.816C427.416 330.816 426.415 330.622 425.465 330.139Z" fill="#231F20"/>
<path d="M14.801 303.878C13.5577 300.097 15.5135 295.928 19.2808 294.67C23.0481 293.359 27.1041 295.398 28.3428 299.226C29.6281 303.002 27.6257 307.171 23.8584 308.43C23.0947 308.671 22.3356 308.818 21.5719 308.818C18.6149 308.818 15.8022 306.93 14.801 303.878Z" fill="#231F20"/>
<path d="M442.057 284.979C438.196 284.108 435.761 280.228 436.571 276.352C437.432 272.43 441.246 269.908 445.107 270.783C448.972 271.654 451.403 275.529 450.546 279.457C449.829 282.845 446.872 285.173 443.584 285.173C443.058 285.173 442.583 285.125 442.057 284.979Z" fill="#231F20"/>
<path d="M2.84326 255.483C2.26769 250.713 5.70435 246.352 10.3928 245.83C15.1426 245.364 19.3784 248.794 19.8925 253.564C20.4066 258.39 16.9755 262.694 12.2815 263.217C11.9965 263.217 11.6557 263.273 11.3651 263.273C7.01755 263.273 3.30148 259.963 2.84326 255.483Z" fill="#231F20"/>
<path d="M440.053 230.125C440.053 229.892 440.053 229.716 440.053 229.54C440.053 229.37 440.053 229.194 440.053 229.018C440.053 224.191 443.887 220.296 448.637 220.296C453.331 220.239 457.22 224.134 457.22 228.961C457.22 229.194 457.22 229.37 457.22 229.54C457.22 229.716 457.22 229.892 457.22 230.125C457.22 234.889 453.386 238.847 448.637 238.847C443.887 238.847 440.053 234.889 440.053 230.125Z" fill="#231F20"/>
<path d="M10.5075 213.604C6.59589 213.169 3.73665 209.587 4.16507 205.612C4.54692 201.637 8.07673 198.732 11.9884 199.12C15.942 199.555 18.8059 203.142 18.3774 207.112C17.9956 210.893 14.8476 213.656 11.2713 213.656C11.0338 213.656 10.745 213.604 10.5075 213.604Z" fill="#231F20"/>
<path d="M436.385 182.837C435.523 178.915 437.954 175.034 441.819 174.164C445.68 173.246 449.498 175.716 450.355 179.639C451.212 183.566 448.781 187.441 444.916 188.359C444.395 188.459 443.868 188.506 443.393 188.506C440.101 188.506 437.144 186.23 436.385 182.837Z" fill="#231F20"/>
<path d="M19.6098 164.449C16.7844 163.505 15.2826 160.417 16.2116 157.582C17.1406 154.711 20.1826 153.185 23.0081 154.129C25.8336 155.076 27.3354 158.164 26.4063 161.035C25.6554 163.324 23.5424 164.74 21.3282 164.74C20.7554 164.74 20.1826 164.669 19.6098 164.449Z" fill="#231F20"/>
<path d="M421.6 138.746C419.933 135.112 421.455 130.796 425.032 129.055C428.608 127.356 432.901 128.956 434.569 132.59C436.24 136.224 434.713 140.539 431.09 142.233C430.135 142.716 429.088 142.91 428.086 142.91C425.413 142.91 422.792 141.363 421.6 138.746Z" fill="#231F20"/>
<path d="M37.4515 121.787C34.066 119.7 32.967 115.243 35.016 111.803C37.023 108.363 41.4097 107.251 44.8417 109.333C48.2272 111.367 49.3215 115.825 47.2725 119.265C45.936 121.541 43.5518 122.804 41.121 122.804C39.8823 122.804 38.5924 122.464 37.4515 121.787Z" fill="#231F20"/>
<path d="M396.671 99.7934C393.754 96.0174 394.497 90.4925 398.219 87.5853C401.997 84.678 407.372 85.3764 410.289 89.2149C413.15 92.9909 412.469 98.5158 408.691 101.423C407.143 102.644 405.254 103.229 403.483 103.229C400.907 103.229 398.331 102.065 396.671 99.7934Z" fill="#231F20"/>
<path d="M63.8881 83.4976C60.4514 80.1815 60.2837 74.6566 63.5416 71.1702C66.805 67.6781 72.1808 67.5077 75.6733 70.8181C79.11 74.1342 79.2777 79.6023 76.0198 83.1455C74.2987 84.9512 72.0131 85.8824 69.7779 85.8824C67.6656 85.8824 65.5477 85.0648 63.8881 83.4976Z" fill="#231F20"/>
<path d="M366.142 65.2413C363.092 62.6246 362.757 58.0205 365.286 54.9685C367.861 51.9165 372.341 51.5284 375.344 54.0931C378.399 56.7098 378.781 61.2666 376.206 64.3659C374.823 66.0647 372.769 66.9353 370.767 66.9353C369.099 66.9353 367.479 66.3533 366.142 65.2413Z" fill="#231F20"/>
<path d="M99.9169 49.9764C97.677 46.631 98.4873 42.1263 101.775 39.8503C105.021 37.5743 109.5 38.4449 111.694 41.7856C113.938 45.0837 113.077 49.5884 109.836 51.8644C108.597 52.7398 107.214 53.1278 105.784 53.1278C103.54 53.1278 101.3 52.0111 99.9169 49.9764Z" fill="#231F20"/>
<path d="M328.088 39.1691C324.609 37.2811 323.272 32.871 325.084 29.3363C326.947 25.7969 331.287 24.4388 334.765 26.3316C338.249 28.1723 339.632 32.5823 337.769 36.117C336.484 38.5918 334.002 39.9971 331.426 39.9971C330.332 39.9971 329.187 39.7511 328.088 39.1691Z" fill="#231F20"/>
<path d="M140.924 25.8958C139.494 22.1624 141.259 17.899 144.933 16.4463C148.603 14.9416 152.752 16.735 154.228 20.4684C155.709 24.1971 153.898 28.4132 150.275 29.9179H150.224C149.367 30.2539 148.459 30.4479 147.602 30.4479C144.743 30.4479 142.07 28.7065 140.924 25.8958Z" fill="#231F20"/>
<path d="M285.083 23.4705C280.507 22.1873 277.813 17.3664 279.076 12.7728C280.333 8.11663 285.027 5.38541 289.604 6.66301C289.604 6.66301 289.604 6.66301 289.604 6.60623C294.181 7.88383 296.868 12.7103 295.611 17.3664C294.583 21.1992 291.146 23.7601 287.374 23.7601C286.626 23.7601 285.826 23.6409 285.083 23.4705Z" fill="#231F20"/>
<path d="M186.178 11.36C185.512 7.38525 188.181 3.65655 192.046 3.02248C195.953 2.34583 199.627 5.00986 200.293 8.98461C200.912 12.9594 198.29 16.6881 194.383 17.3174C194.001 17.4168 193.62 17.4168 193.238 17.4168C189.755 17.4168 186.751 14.8947 186.178 11.36Z" fill="#231F20"/>
<path d="M240.206 14.7003C236.248 14.5063 233.197 11.1136 233.388 7.09625C233.579 3.07418 236.965 -0.0299077 240.923 0.211414C244.83 0.405423 247.885 3.79815 247.694 7.82022C247.503 11.6956 244.355 14.7003 240.541 14.7003C240.443 14.7003 240.304 14.7003 240.206 14.7003Z" fill="#231F20"/>
<path d="M234.534 395.259C234.198 391.237 237.155 387.75 241.114 387.461C245.072 387.12 248.504 390.125 248.788 394.147C249.077 398.169 246.12 401.656 242.161 401.945C242.017 401.945 241.826 401.945 241.635 401.945C237.919 401.945 234.771 399.04 234.534 395.259Z" fill="#231F20"/>
<path d="M191.757 398.169C187.943 397.294 185.512 393.418 186.369 389.496C187.231 385.568 191.091 383.146 194.952 384.021C198.77 384.892 201.201 388.767 200.344 392.69C199.58 396.082 196.623 398.363 193.331 398.363C192.856 398.363 192.283 398.311 191.757 398.169Z" fill="#231F20"/>
<path d="M280.891 386.924C279.114 382.449 281.288 377.39 285.697 375.647C290.1 373.841 295.079 376.05 296.856 380.53C298.572 385.004 296.398 390.064 291.989 391.869C290.961 392.273 289.933 392.449 288.843 392.449C285.412 392.449 282.204 390.353 280.891 386.924Z" fill="#231F20"/>
<path d="M144.691 379.464C141.259 377.477 140.114 373.019 142.07 369.532C144.025 366.092 148.412 364.881 151.844 366.868C155.229 368.851 156.422 373.308 154.47 376.8C153.134 379.124 150.75 380.434 148.268 380.434C147.029 380.434 145.837 380.141 144.691 379.464Z" fill="#231F20"/>
<path d="M326.576 362.48C324.715 360.12 325.109 356.702 327.397 354.814C329.723 352.923 333.086 353.324 334.944 355.687C336.802 358.012 336.411 361.465 334.12 363.318C333.121 364.116 331.941 364.517 330.76 364.517C329.185 364.517 327.614 363.825 326.576 362.48Z" fill="#231F20"/>
<path d="M105.114 347.487C102.446 344.529 102.59 339.925 105.496 337.214C108.406 334.498 112.886 334.644 115.606 337.602C118.274 340.507 118.134 345.111 115.224 347.87C113.887 349.133 112.127 349.81 110.362 349.81C108.453 349.81 106.544 349.034 105.114 347.487Z" fill="#231F20"/>
<path d="M359.656 328.975C356.368 326.747 355.558 322.19 357.751 318.897H357.798C359.991 315.551 364.475 314.728 367.717 317.009C370.958 319.237 371.819 323.789 369.575 327.087C368.192 329.169 365.952 330.281 363.665 330.281C362.282 330.281 360.899 329.846 359.656 328.975Z" fill="#231F20"/>
<path d="M76.5491 305.089C74.8355 301.502 76.3116 297.139 79.888 295.398C83.4178 293.652 87.7113 295.152 89.425 298.786C91.1433 302.373 89.6625 306.736 86.1373 308.477C85.1362 308.964 84.0372 309.206 82.9894 309.206C80.3677 309.206 77.7925 307.706 76.5491 305.089Z" fill="#231F20"/>
<path d="M382.595 285.608C378.828 284.444 376.728 280.375 377.873 276.546C379.019 272.671 383.023 270.537 386.837 271.701C390.605 272.912 392.705 276.982 391.559 280.81C390.605 283.914 387.745 285.949 384.691 285.949C384.025 285.949 383.307 285.849 382.595 285.608Z" fill="#231F20"/>
<path d="M61.5777 256.053C61.005 252.078 63.6779 248.35 67.5849 247.768C71.4966 247.186 75.1195 249.897 75.7389 253.872C76.3116 257.846 73.6433 261.528 69.7317 262.157C69.3498 262.204 69.0192 262.204 68.6373 262.204C65.1541 262.204 62.1039 259.635 61.5777 256.053Z" fill="#231F20"/>
<path d="M384.741 230.032C384.741 229.933 384.741 229.838 384.741 229.791C384.741 229.644 384.741 229.498 384.741 229.351C384.69 225.334 387.885 222.036 391.843 222.036C395.801 222.036 398.996 225.282 399.047 229.304C399.047 229.403 399.047 229.545 398.996 229.692C398.996 229.791 399.047 229.886 399.047 230.032C399.047 234.002 395.801 237.301 391.894 237.301C387.936 237.301 384.741 234.002 384.741 230.032Z" fill="#231F20"/>
<path d="M67.4918 212.927C63.5801 212.345 60.9118 208.664 61.4846 204.689C62.0574 200.719 65.6803 197.956 69.5873 198.585C73.499 199.167 76.2185 202.848 75.6457 206.823C75.1195 210.41 72.0693 213.027 68.5395 213.027C68.2043 213.027 67.8736 212.975 67.4918 212.927Z" fill="#231F20"/>
<path d="M377.682 182.837C376.49 179.009 378.59 174.94 382.357 173.776C386.124 172.564 390.176 174.698 391.321 178.526C392.513 182.354 390.413 186.424 386.646 187.635C385.934 187.876 385.216 187.971 384.499 187.971C381.449 187.971 378.636 185.988 377.682 182.837Z" fill="#231F20"/>
<path d="M79.6043 165.249C76.0745 163.503 74.5471 159.145 76.2654 155.558C77.9325 151.924 82.226 150.419 85.8024 152.165C89.3788 153.864 90.8549 158.222 89.1413 161.856C87.9026 164.425 85.374 165.977 82.701 165.977C81.6532 165.977 80.6055 165.731 79.6043 165.249Z" fill="#231F20"/>
<path d="M357.416 140.586C355.176 137.241 355.986 132.736 359.227 130.46C362.519 128.179 366.953 129.003 369.192 132.348C371.437 135.642 370.627 140.151 367.381 142.427C366.142 143.298 364.713 143.733 363.33 143.733C361.039 143.733 358.799 142.621 357.416 140.586Z" fill="#231F20"/>
<path d="M104.098 124.402C100.606 121.148 100.377 115.624 103.64 112.075C106.848 108.531 112.279 108.299 115.772 111.552C119.203 114.868 119.432 120.393 116.23 123.88C114.514 125.742 112.223 126.73 109.932 126.73C107.82 126.73 105.758 125.918 104.098 124.402Z" fill="#231F20"/>
<path d="M324.915 107.315C321.193 104.351 320.568 98.8887 323.485 95.107C326.457 91.3253 331.839 90.6893 335.56 93.6533C339.277 96.6742 339.908 102.142 336.93 105.924C335.27 108.07 332.755 109.234 330.235 109.234C328.346 109.234 326.457 108.598 324.915 107.315Z" fill="#231F20"/>
<path d="M141.497 90.8217C139.494 87.3817 140.64 82.9243 144.072 80.8896C147.509 78.9022 151.844 80.0662 153.851 83.5536C155.853 86.9936 154.708 91.4511 151.276 93.4857C150.13 94.1198 148.892 94.4558 147.699 94.4558C145.217 94.4558 142.833 93.1498 141.497 90.8217Z" fill="#231F20"/>
<path d="M285.651 82.7774C281.976 81.3247 280.118 77.1086 281.548 73.3799C282.978 69.6465 287.127 67.8058 290.801 69.2585C294.522 70.7159 296.333 74.932 294.899 78.6607C293.805 81.5187 291.085 83.3121 288.226 83.3121C287.369 83.3121 286.461 83.1181 285.651 82.7774Z" fill="#231F20"/>
<path d="M185.75 70.7161C184.846 66.7887 187.231 62.866 191.091 61.9906C194.951 61.0726 198.77 63.5427 199.673 67.418C200.581 71.3455 198.146 75.2682 194.286 76.1436C193.759 76.2855 193.238 76.3376 192.712 76.3376C189.471 76.3376 186.513 74.0568 185.75 70.7161Z" fill="#231F20"/>
<path d="M240.58 70.7018H240.619C237.65 70.5173 235.432 67.9018 235.645 64.8852C235.824 61.8687 238.401 59.6151 241.37 59.8351C244.3 60.0516 246.553 62.6707 246.34 65.6482C246.127 68.5193 243.766 70.7373 240.975 70.7373C240.867 70.7373 240.724 70.7373 240.58 70.7018Z" fill="#231F20"/>
<path d="M233.685 337.724C233.115 332.96 236.435 328.599 241.184 328.014C245.878 327.435 250.109 330.865 250.684 335.635C251.254 340.399 247.935 344.76 243.185 345.344C243.185 345.344 243.185 345.344 243.246 345.344C242.9 345.401 242.498 345.401 242.157 345.401C237.865 345.401 234.205 342.148 233.685 337.724Z" fill="#231F20"/>
<path d="M189.424 337.356C185.703 335.95 183.841 331.739 185.275 328.006C186.658 324.225 190.756 322.337 194.477 323.742V323.79C198.146 325.195 200.055 329.364 198.626 333.144C197.527 336.05 194.812 337.843 191.948 337.843C191.091 337.843 190.234 337.696 189.424 337.356Z" fill="#231F20"/>
<path d="M283.602 322.578C281.357 319.238 282.168 314.728 285.413 312.452C288.655 310.176 293.088 310.999 295.379 314.293C297.619 317.586 296.808 322.096 293.567 324.419C292.278 325.294 290.894 325.682 289.465 325.682C287.225 325.682 284.985 324.613 283.602 322.578Z" fill="#231F20"/>
<path d="M144.934 306.201C142.307 303.196 142.549 298.592 145.553 295.928C148.459 293.264 152.99 293.553 155.611 296.557C158.238 299.562 157.996 304.166 155.043 306.83C153.66 308.042 151.989 308.671 150.275 308.671C148.319 308.671 146.363 307.848 144.934 306.201Z" fill="#231F20"/>
<path d="M319.696 286.337C316.218 284.496 314.835 280.086 316.693 276.547C318.504 272.96 322.844 271.654 326.328 273.495C329.853 275.335 331.189 279.745 329.378 283.332C329.378 283.332 329.378 283.332 329.331 283.285C328.041 285.802 325.611 287.208 323.035 287.208C321.89 287.208 320.749 286.919 319.696 286.337Z" fill="#231F20"/>
<path d="M118.367 257.999C117.221 253.343 120.027 248.579 124.603 247.472C129.241 246.308 133.874 249.158 135.02 253.809C136.165 258.465 133.36 263.229 128.722 264.393C128.034 264.569 127.353 264.626 126.665 264.626C122.832 264.626 119.339 261.951 118.367 257.999Z" fill="#231F20"/>
<path d="M326.518 230.076C326.518 230.019 326.518 230.019 326.518 230.019C326.518 229.843 326.518 229.724 326.518 229.554C326.518 224.727 330.351 220.832 335.101 220.832C339.789 220.832 343.684 224.665 343.684 229.491C343.684 229.611 343.684 229.667 343.684 229.787C343.684 229.9 343.684 229.957 343.684 230.076C343.684 234.84 339.851 238.798 335.101 238.798C330.351 238.798 326.518 234.84 326.518 230.076Z" fill="#231F20"/>
<path d="M124.905 211.569C121.04 210.604 118.707 206.676 119.657 202.801C119.657 202.801 119.657 202.801 119.61 202.801C120.565 198.873 124.425 196.503 128.29 197.421C132.104 198.391 134.488 202.318 133.534 206.194C132.723 209.534 129.818 211.763 126.572 211.763C125.999 211.763 125.478 211.716 124.905 211.569Z" fill="#231F20"/>
<path d="M316.502 183.126C314.644 179.591 315.98 175.181 319.459 173.293C322.988 171.4 327.277 172.758 329.14 176.298C330.998 179.88 329.662 184.242 326.183 186.13C325.135 186.713 323.99 187.006 322.844 187.006C320.269 187.006 317.791 185.601 316.502 183.126Z" fill="#231F20"/>
<path d="M145.264 164.378C142.307 161.709 142.023 157.11 144.645 154.153C144.645 154.153 144.645 154.153 144.645 154.105C147.266 151.1 151.797 150.807 154.754 153.476C157.712 156.14 157.996 160.744 155.374 163.744C153.944 165.343 151.988 166.219 150.033 166.219C148.319 166.219 146.647 165.589 145.264 164.378Z" fill="#231F20"/>
<path d="M285.078 147.367C281.837 145.091 280.975 140.539 283.22 137.241C285.46 133.948 289.94 133.077 293.185 135.353C296.426 137.629 297.283 142.134 295.043 145.479C293.66 147.514 291.42 148.631 289.129 148.631C287.746 148.631 286.317 148.191 285.078 147.367Z" fill="#231F20"/>
<path d="M184.893 132.202C183.463 128.473 185.321 124.257 188.991 122.804C192.711 121.399 196.861 123.287 198.244 127.02C199.673 130.749 197.815 134.965 194.141 136.37V136.418C193.284 136.711 192.427 136.853 191.566 136.853C188.707 136.853 185.987 135.112 184.893 132.202Z" fill="#231F20"/>
<path d="M240.807 131.952C236.057 131.367 232.682 127.069 233.252 122.243C233.828 117.473 238.058 114.043 242.808 114.622C247.502 115.207 250.877 119.506 250.307 124.275C249.793 128.755 246.071 132.009 241.78 132.009C241.439 132.009 241.148 132.009 240.807 131.952Z" fill="#231F20"/>
<path d="M201.345 279.457C197.909 277.469 196.717 273.012 198.719 269.52C200.675 266.032 205.062 264.868 208.498 266.856C211.93 268.89 213.076 273.3 211.12 276.788C209.783 279.116 207.399 280.422 204.922 280.422C203.678 280.422 202.44 280.133 201.345 279.457ZM247.694 276.74C245.692 273.3 246.884 268.843 250.269 266.808C253.701 264.821 258.088 265.985 260.044 269.472C262.046 272.912 260.854 277.37 257.468 279.405C256.323 280.034 255.084 280.375 253.892 280.375C251.415 280.375 248.979 279.069 247.694 276.74ZM173.209 230.127C173.209 226.105 176.404 222.859 180.362 222.859C184.274 222.812 187.515 226.058 187.515 230.127C187.515 234.102 184.32 237.395 180.362 237.395C176.404 237.395 173.209 234.149 173.209 230.127ZM272.984 230.148C272.949 230.073 272.949 229.967 272.949 229.857C272.949 226.84 275.345 224.37 278.313 224.37C281.282 224.37 283.678 226.805 283.678 229.821C283.678 229.857 283.678 229.892 283.678 229.928C283.678 229.928 283.678 229.967 283.678 230.002C283.678 230.002 283.678 230.002 283.713 230.002C283.713 232.98 281.282 235.453 278.348 235.453C275.414 235.453 273.057 233.09 272.984 230.148ZM200.079 189.72C198.615 187.101 199.471 183.758 202.01 182.268C204.587 180.742 207.877 181.615 209.379 184.23C210.846 186.81 209.987 190.157 207.448 191.683C206.589 192.19 205.66 192.407 204.731 192.407C202.904 192.407 201.081 191.463 200.079 189.72ZM250.125 193.11C246.693 191.122 245.501 186.665 247.503 183.178C249.459 179.686 253.799 178.526 257.231 180.514C260.663 182.496 261.855 186.906 259.899 190.394C258.567 192.769 256.132 194.08 253.655 194.08C252.462 194.08 251.27 193.786 250.125 193.11Z" fill="#231F20"/>
</g>
<defs>
<clipPath id="clip0_54_1510">
<rect width="460" height="460" fill="white"/>
</clipPath>
</defs>
</svg>
