<svg width="62" height="62" viewBox="0 0 62 62" fill="none" xmlns="http://www.w3.org/2000/svg">
<g id="Handshake">
<path id="Vector" opacity="0.2" d="M48.4375 36.8125L38.75 46.5L23.25 42.625L9.6875 32.9375L17.4375 17.4375L31 13.5625L44.5625 17.4375H34.875L23.8167 28.164C23.6111 28.3695 23.4544 28.6185 23.3582 28.8928C23.262 29.167 23.2286 29.4594 23.2607 29.7483C23.2928 30.0372 23.3895 30.3151 23.5436 30.5616C23.6977 30.808 23.9053 31.0166 24.1509 31.172C28.3916 33.882 34.1484 33.6955 38.75 29.0625L48.4375 36.8125Z" fill="white"/>
<path id="Vector_2" d="M29.0043 52.7824C28.8995 53.2016 28.6576 53.5737 28.3171 53.8396C27.9766 54.1055 27.557 54.25 27.1249 54.2501C26.9617 54.2508 26.799 54.2313 26.6405 54.1919L18.8905 52.2544C18.6748 52.2002 18.47 52.1093 18.2851 51.9856L12.4726 48.1106C12.0451 47.8254 11.7484 47.3821 11.6478 46.8782C11.5472 46.3742 11.6509 45.851 11.9361 45.4235C12.2213 44.9961 12.6646 44.6994 13.1686 44.5988C13.6725 44.4982 14.1957 44.6019 14.6232 44.8871L20.1548 48.5756L27.5802 50.4332C27.8283 50.4933 28.0621 50.6019 28.2681 50.7527C28.4741 50.9035 28.6482 51.0935 28.7806 51.3118C28.9129 51.5301 29.0008 51.7724 29.0392 52.0248C29.0776 52.2771 29.0657 52.5346 29.0043 52.7824ZM61.1401 29.421C60.9812 29.9039 60.7281 30.3505 60.3955 30.735C60.063 31.1195 59.6576 31.4343 59.2026 31.6612L53.4676 34.5287L40.128 47.8708C39.8912 48.1074 39.5972 48.2785 39.2747 48.3676C38.9521 48.4568 38.6119 48.4608 38.2873 48.3794L22.7873 44.5044C22.5516 44.4453 22.329 44.3426 22.131 44.2017L8.68476 34.6014L2.80444 31.6612C1.88543 31.2018 1.18649 30.3962 0.861308 29.4216C0.536128 28.447 0.61133 27.3831 1.07038 26.4639L7.08874 14.4296C7.54815 13.5106 8.35374 12.8116 9.32838 12.4864C10.303 12.1613 11.3669 12.2365 12.2861 12.6955L17.6287 15.3596L30.4647 11.6929C30.8129 11.5933 31.1821 11.5933 31.5303 11.6929L44.3662 15.3596L49.7089 12.6955C50.6281 12.2365 51.692 12.1613 52.6666 12.4864C53.6412 12.8116 54.4468 13.5106 54.9062 14.4296L60.9246 26.4639C61.1541 26.9181 61.2914 27.4133 61.3284 27.9209C61.3654 28.4284 61.3014 28.9383 61.1401 29.421ZM49.9559 32.5549L43.366 19.3751H35.6596L25.1874 29.5469C28.2535 31.5062 33.0609 32.0463 37.3743 27.699C37.7112 27.3595 38.1617 27.1565 38.6392 27.1293C39.1168 27.102 39.5875 27.2523 39.9608 27.5513L48.2945 34.2284L49.9559 32.5549ZM4.53608 28.1955L8.82038 30.3389L14.8387 18.3046L10.5544 16.1612L4.53608 28.1955ZM45.5312 36.9724L38.8201 31.5983C34.0878 35.4733 28.0791 35.9843 23.0998 32.8092C22.6099 32.4976 22.1964 32.08 21.8897 31.5871C21.5829 31.0943 21.3909 30.5388 21.3276 29.9618C21.2644 29.3847 21.3316 28.8008 21.5243 28.2532C21.717 27.7057 22.0303 27.2084 22.441 26.7981C22.4468 26.791 22.4533 26.7846 22.4604 26.7787L33.3249 16.2411L30.9999 15.5776L18.7888 19.0675L12.1601 32.3224L24.0758 40.8353L38.1566 44.3543L45.5312 36.9724ZM57.4565 28.1955L51.4454 16.1612L47.1611 18.3046L53.1794 30.3389L57.4565 28.1955Z" fill="white"/>
</g>
</svg>
