<svg width="62" height="62" viewBox="0 0 62 62" fill="none" xmlns="http://www.w3.org/2000/svg">
<g id="Users">
<path id="Vector" opacity="0.2" d="M32.9375 26.1562C32.9375 28.6471 32.1989 31.0819 30.8151 33.153C29.4313 35.224 27.4644 36.8382 25.1632 37.7914C22.862 38.7445 20.3298 38.9939 17.8868 38.508C15.4439 38.0221 13.1999 36.8226 11.4386 35.0614C9.67736 33.3001 8.47792 31.0561 7.99199 28.6132C7.50606 26.1702 7.75546 23.638 8.70865 21.3368C9.66184 19.0356 11.276 17.0687 13.347 15.6849C15.4181 14.3011 17.8529 13.5625 20.3438 13.5625C23.6838 13.5625 26.8871 14.8893 29.2489 17.2511C31.6107 19.6129 32.9375 22.8162 32.9375 26.1562Z" fill="white"/>
<path id="Vector_2" d="M28.3965 38.2463C30.9932 36.5175 32.9647 33.999 34.0193 31.0631C35.074 28.1273 35.1559 24.9299 34.2528 21.9439C33.3498 18.9579 31.5098 16.3418 29.0049 14.4824C26.5 12.6231 23.4633 11.6191 20.3437 11.6191C17.2242 11.6191 14.1874 12.6231 11.6825 14.4824C9.17767 16.3418 7.33767 18.9579 6.43463 21.9439C5.53158 24.9299 5.61345 28.1273 6.66811 31.0631C7.72277 33.999 9.69424 36.5175 12.291 38.2463C7.59374 39.9775 3.58218 43.1812 0.85489 47.3792C0.711553 47.5922 0.611991 47.8316 0.561991 48.0835C0.511991 48.3353 0.512551 48.5946 0.563638 48.8462C0.614725 49.0979 0.715319 49.3368 0.859575 49.5493C1.00383 49.7617 1.18887 49.9433 1.40393 50.0836C1.619 50.2239 1.8598 50.32 2.11235 50.3664C2.36489 50.4128 2.62414 50.4085 2.87501 50.3538C3.12589 50.2991 3.3634 50.1951 3.57373 50.0478C3.78406 49.9006 3.96302 49.7129 4.1002 49.4959C5.85943 46.7901 8.26669 44.5667 11.1034 43.0275C13.9401 41.4883 17.1163 40.6821 20.3437 40.6821C23.5711 40.6821 26.7474 41.4883 29.5841 43.0275C32.4207 44.5667 34.828 46.7901 36.5872 49.4959C36.8714 49.9183 37.3104 50.2118 37.8093 50.3131C38.3081 50.4144 38.8268 50.3152 39.2532 50.0371C39.6796 49.759 39.9794 49.3243 40.0878 48.8269C40.1962 48.3296 40.1045 47.8095 39.8326 47.3792C37.1053 43.1812 33.0937 39.9775 28.3965 38.2463ZM9.68747 26.1563C9.68747 24.0487 10.3124 21.9884 11.4834 20.236C12.6543 18.4836 14.3186 17.1177 16.2657 16.3112C18.2129 15.5047 20.3555 15.2936 22.4227 15.7048C24.4898 16.116 26.3885 17.1309 27.8788 18.6212C29.3691 20.1115 30.384 22.0102 30.7952 24.0774C31.2064 26.1445 30.9954 28.2871 30.1888 30.2343C29.3823 32.1814 28.0164 33.8457 26.264 35.0166C24.5116 36.1876 22.4513 36.8125 20.3437 36.8125C17.5185 36.8093 14.8099 35.6856 12.8122 33.6879C10.8144 31.6901 9.69067 28.9815 9.68747 26.1563ZM60.5808 50.0602C60.1504 50.3408 59.6262 50.439 59.1234 50.3332C58.6206 50.2274 58.1805 49.9262 57.8997 49.4959C56.1426 46.7885 53.7357 44.5641 50.8984 43.0256C48.0611 41.487 44.8838 40.6832 41.6562 40.6875C41.1424 40.6875 40.6496 40.4834 40.2862 40.1201C39.9228 39.7567 39.7187 39.2639 39.7187 38.75C39.7187 38.2362 39.9228 37.7434 40.2862 37.38C40.6496 37.0167 41.1424 36.8125 41.6562 36.8125C43.2255 36.8111 44.7751 36.463 46.1943 35.7932C47.6135 35.1234 48.8672 34.1484 49.8659 32.938C50.8647 31.7275 51.5837 30.3113 51.9716 28.7907C52.3596 27.2702 52.4069 25.6826 52.1102 24.1416C51.8136 22.6006 51.1802 21.1442 50.2554 19.8764C49.3305 18.6085 48.1371 17.5606 46.7603 16.8074C45.3836 16.0543 43.8575 15.6145 42.291 15.5196C40.7246 15.4246 39.1565 15.6768 37.6989 16.2581C37.4612 16.3608 37.2054 16.4149 36.9464 16.4171C36.6875 16.4193 36.4308 16.3695 36.1914 16.2708C35.9521 16.1721 35.7349 16.0264 35.5528 15.8424C35.3707 15.6583 35.2273 15.4396 35.1311 15.1992C35.035 14.9588 34.988 14.7016 34.9929 14.4427C34.9979 14.1838 35.0546 13.9286 35.1599 13.692C35.2652 13.4554 35.4168 13.2424 35.6058 13.0654C35.7948 12.8884 36.0173 12.7511 36.2603 12.6616C39.5963 11.3311 43.3069 11.2833 46.6761 12.5272C50.0454 13.7711 52.8346 16.2187 54.5057 19.3978C56.1768 22.5769 56.6114 26.2623 55.7256 29.7429C54.8398 33.2235 52.6964 36.2528 49.709 38.2463C54.4062 39.9775 58.4178 43.1812 61.1451 47.3792C61.4257 47.8096 61.5239 48.3338 61.4181 48.8365C61.3123 49.3393 61.0111 49.7795 60.5808 50.0602Z" fill="white"/>
</g>
</svg>
