<svg width="34" height="30" viewBox="0 0 34 30" fill="none" xmlns="http://www.w3.org/2000/svg">
<g clip-path="url(#clip0_3_433)">
<path d="M3.75 3.75C1.68164 3.75 0 5.43164 0 7.5V22.5C0 24.5684 1.68164 26.25 3.75 26.25H30C32.0684 26.25 33.75 24.5684 33.75 22.5V7.5C33.75 5.43164 32.0684 3.75 30 3.75H3.75ZM6.5625 13.125H15.9375C16.4531 13.125 16.875 13.5469 16.875 14.0625C16.875 14.5781 16.4531 15 15.9375 15H6.5625C6.04688 15 5.625 14.5781 5.625 14.0625C5.625 13.5469 6.04688 13.125 6.5625 13.125ZM5.625 19.6875C5.625 19.1719 6.04688 18.75 6.5625 18.75H27.1875C27.7031 18.75 28.125 19.1719 28.125 19.6875C28.125 20.2031 27.7031 20.625 27.1875 20.625H6.5625C6.04688 20.625 5.625 20.2031 5.625 19.6875ZM22.0312 9.375H26.7188C27.498 9.375 28.125 10.002 28.125 10.7812V13.5938C28.125 14.373 27.498 15 26.7188 15H22.0312C21.252 15 20.625 14.373 20.625 13.5938V10.7812C20.625 10.002 21.252 9.375 22.0312 9.375Z" fill="#262626"/>
</g>
<defs>
<clipPath id="clip0_3_433">
<rect width="33.75" height="30" fill="white"/>
</clipPath>
</defs>
</svg>
