<svg width="19" height="30" viewBox="0 0 19 30" fill="none" xmlns="http://www.w3.org/2000/svg">
<path d="M9.37496 0C10.4121 0 11.25 0.837891 11.25 1.875V3.9668C11.3437 3.97852 11.4316 3.99023 11.5254 4.00781C11.5488 4.01367 11.5664 4.01367 11.5898 4.01953L14.4023 4.53516C15.4218 4.72266 16.0957 5.70117 15.9082 6.71484C15.7207 7.72852 14.7422 8.4082 13.7285 8.2207L10.9453 7.71094C9.11129 7.44141 7.4941 7.62305 6.35738 8.07422C5.22067 8.52539 4.76363 9.14648 4.65817 9.7207C4.54098 10.3477 4.62887 10.6992 4.72848 10.916C4.83395 11.1445 5.05074 11.4023 5.47848 11.6895C6.43356 12.3164 7.8984 12.7266 9.79684 13.2305L9.96676 13.2773C11.6425 13.7227 13.6933 14.2617 15.2168 15.2578C16.0488 15.8027 16.8339 16.541 17.3203 17.5723C17.8183 18.6211 17.9238 19.793 17.6953 21.041C17.291 23.2676 15.7558 24.7559 13.8515 25.5352C13.0488 25.8633 12.1757 26.0742 11.25 26.1797V28.125C11.25 29.1621 10.4121 30 9.37496 30C8.33785 30 7.49996 29.1621 7.49996 28.125V26.0801C7.47652 26.0742 7.44723 26.0742 7.42379 26.0684H7.41207C5.98238 25.8457 3.63278 25.2305 2.05074 24.5273C1.10738 24.1055 0.67965 22.998 1.10153 22.0547C1.5234 21.1113 2.63082 20.6836 3.57418 21.1055C4.79879 21.6504 6.81442 22.1895 7.98043 22.3711C9.84957 22.6465 11.3906 22.4883 12.4336 22.0605C13.4238 21.6562 13.875 21.0703 14.0039 20.3672C14.1152 19.7461 14.0273 19.3887 13.9277 19.1719C13.8164 18.9375 13.5996 18.6797 13.166 18.3926C12.205 17.7656 10.7343 17.3555 8.83004 16.8516L8.66598 16.8105C6.99606 16.3652 4.94528 15.8203 3.42184 14.8242C2.58981 14.2793 1.81051 13.5352 1.32418 12.5039C0.831994 11.4551 0.732384 10.2832 0.966759 9.03516C1.38863 6.79688 3.06442 5.34375 4.96871 4.58789C5.74801 4.27734 6.60348 4.06641 7.49996 3.94336V1.875C7.49996 0.837891 8.33785 0 9.37496 0Z" fill="#262626"/>
</svg>
