<svg width="81" height="80" viewBox="0 0 81 80" fill="none" xmlns="http://www.w3.org/2000/svg">
<path opacity="0.2" d="M70.5 17.5V65H10.5V15H68C68.663 15 69.2989 15.2634 69.7678 15.7322C70.2366 16.2011 70.5 16.837 70.5 17.5Z" fill="black"/>
<path d="M73 65C73 65.663 72.7366 66.2989 72.2678 66.7678C71.7989 67.2366 71.163 67.5 70.5 67.5H10.5C9.83696 67.5 9.20107 67.2366 8.73223 66.7678C8.26339 66.2989 8 65.663 8 65V15C8 14.337 8.26339 13.7011 8.73223 13.2322C9.20107 12.7634 9.83696 12.5 10.5 12.5C11.163 12.5 11.7989 12.7634 12.2678 13.2322C12.7366 13.7011 13 14.337 13 15V48.9656L28.7312 33.2312C28.9634 32.9988 29.2392 32.8144 29.5426 32.6886C29.8461 32.5628 30.1715 32.498 30.5 32.498C30.8285 32.498 31.1539 32.5628 31.4574 32.6886C31.7608 32.8144 32.0366 32.9988 32.2688 33.2312L40.5 41.4656L56.9656 25H50.5C49.837 25 49.2011 24.7366 48.7322 24.2678C48.2634 23.7989 48 23.163 48 22.5C48 21.837 48.2634 21.2011 48.7322 20.7322C49.2011 20.2634 49.837 20 50.5 20H63C63.663 20 64.2989 20.2634 64.7678 20.7322C65.2366 21.2011 65.5 21.837 65.5 22.5V35C65.5 35.663 65.2366 36.2989 64.7678 36.7678C64.2989 37.2366 63.663 37.5 63 37.5C62.337 37.5 61.7011 37.2366 61.2322 36.7678C60.7634 36.2989 60.5 35.663 60.5 35V28.5344L42.2688 46.7688C42.0366 47.0012 41.7608 47.1856 41.4574 47.3114C41.1539 47.4372 40.8285 47.502 40.5 47.502C40.1715 47.502 39.8461 47.4372 39.5426 47.3114C39.2392 47.1856 38.9634 47.0012 38.7312 46.7688L30.5 38.5344L13 56.0344V62.5H70.5C71.163 62.5 71.7989 62.7634 72.2678 63.2322C72.7366 63.7011 73 64.337 73 65Z" fill="black"/>
</svg>
