<svg width="32" height="32" viewBox="0 0 32 32" fill="none" xmlns="http://www.w3.org/2000/svg">
<g id="CheckFat">
<path id="Vector" opacity="0.2" d="M29.7077 10.6575L13.6577 26.7075C13.5648 26.8005 13.4545 26.8743 13.3331 26.9246C13.2117 26.9749 13.0816 27.0008 12.9502 27.0008C12.8187 27.0008 12.6886 26.9749 12.5672 26.9246C12.4458 26.8743 12.3355 26.8005 12.2427 26.7075L3.29266 17.7075C3.10527 17.52 3 17.2658 3 17.0007C3 16.7355 3.10527 16.4813 3.29266 16.2938L6.29266 13.2938C6.38553 13.2008 6.49582 13.127 6.61722 13.0767C6.73862 13.0264 6.86875 13.0005 7.00016 13.0005C7.13158 13.0005 7.2617 13.0264 7.3831 13.0767C7.5045 13.127 7.61479 13.2008 7.70766 13.2938L12.2927 17.7088C12.3855 17.8018 12.4958 17.8755 12.6172 17.9258C12.7386 17.9762 12.8687 18.0021 13.0002 18.0021C13.1316 18.0021 13.2617 17.9762 13.3831 17.9258C13.5045 17.8755 13.6148 17.8018 13.7077 17.7088L25.2927 6.29377C25.3855 6.2008 25.4958 6.12704 25.6172 6.07671C25.7386 6.02639 25.8687 6.00049 26.0002 6.00049C26.1316 6.00049 26.2617 6.02639 26.3831 6.07671C26.5045 6.12704 26.6148 6.2008 26.7077 6.29377L29.7077 9.24377C29.8951 9.43129 30.0003 9.68555 30.0003 9.95065C30.0003 10.2158 29.8951 10.47 29.7077 10.6575Z" fill="#6EBF06"/>
<path id="Vector_2" d="M30.4102 8.53003L27.4102 5.58503C27.0354 5.21176 26.5279 5.0022 25.9989 5.0022C25.47 5.0022 24.9625 5.21176 24.5877 5.58503L13.0002 17L12.9864 16.9863L8.40644 12.5775C8.03067 12.2056 7.52294 11.9977 6.99426 11.9991C6.46559 12.0005 5.95897 12.2111 5.58519 12.585L2.58519 15.585C2.21078 15.96 2.00049 16.4683 2.00049 16.9982C2.00049 17.5281 2.21078 18.0363 2.58519 18.4113L11.5377 27.4113C11.7234 27.597 11.9439 27.7444 12.1866 27.8449C12.4293 27.9455 12.6894 27.9972 12.9521 27.9972C13.2147 27.9972 13.4749 27.9455 13.7175 27.8449C13.9602 27.7444 14.1807 27.597 14.3664 27.4113L30.4164 11.3638C30.6025 11.1776 30.7501 10.9564 30.8505 10.713C30.9509 10.4697 31.0023 10.2089 31.0018 9.9456C31.0012 9.68232 30.9486 9.42175 30.8471 9.17883C30.7456 8.93591 30.5971 8.71543 30.4102 8.53003ZM12.9527 26L4.00019 17L7.00019 14L7.01394 14.0138L11.5939 18.4225C11.9685 18.7935 12.4743 19.0016 13.0014 19.0016C13.5286 19.0016 14.0344 18.7935 14.4089 18.4225L26.0077 7.00003L29.0002 9.95003L12.9527 26Z" fill="#6EBF06"/>
</g>
</svg>
