<svg width="81" height="80" viewBox="0 0 81 80" fill="none" xmlns="http://www.w3.org/2000/svg">
<path opacity="0.2" d="M65.5 27.5H48V10L65.5 27.5Z" fill="#6EBF06"/>
<path d="M67.2688 25.7313L49.7688 8.23125C49.5364 7.99916 49.2606 7.81513 48.9571 7.68966C48.6536 7.56419 48.3284 7.49974 48 7.5H18C16.6739 7.5 15.4021 8.02678 14.4645 8.96447C13.5268 9.90215 13 11.1739 13 12.5V67.5C13 68.8261 13.5268 70.0979 14.4645 71.0355C15.4021 71.9732 16.6739 72.5 18 72.5H63C64.3261 72.5 65.5979 71.9732 66.5355 71.0355C67.4732 70.0979 68 68.8261 68 67.5V27.5C68.0003 27.1716 67.9358 26.8464 67.8103 26.5429C67.6849 26.2394 67.5008 25.9636 67.2688 25.7313ZM50.5 16.0344L59.4656 25H50.5V16.0344ZM63 67.5H18V12.5H45.5V27.5C45.5 28.163 45.7634 28.7989 46.2322 29.2678C46.7011 29.7366 47.337 30 48 30H63V67.5ZM48.7688 52.2344C50.2442 49.8899 50.8041 47.084 50.3415 44.3528C49.8789 41.6216 48.4263 39.1566 46.2611 37.4287C44.096 35.7008 41.3701 34.8312 38.6043 34.986C35.8386 35.1409 33.2268 36.3093 31.2681 38.2681C29.3093 40.2268 28.1409 42.8386 27.986 45.6043C27.8312 48.3701 28.7008 51.096 30.4287 53.2611C32.1566 55.4263 34.6216 56.8789 37.3528 57.3415C40.084 57.8041 42.8899 57.2442 45.2344 55.7688L48.7312 59.2688C48.9635 59.501 49.2393 59.6853 49.5428 59.811C49.8462 59.9367 50.1715 60.0014 50.5 60.0014C50.8285 60.0014 51.1538 59.9367 51.4572 59.811C51.7607 59.6853 52.0365 59.501 52.2688 59.2688C52.501 59.0365 52.6853 58.7607 52.811 58.4572C52.9367 58.1538 53.0014 57.8285 53.0014 57.5C53.0014 57.1715 52.9367 56.8462 52.811 56.5428C52.6853 56.2393 52.501 55.9635 52.2688 55.7313L48.7688 52.2344ZM33 46.25C33 45.0139 33.3666 43.8055 34.0533 42.7777C34.7401 41.7499 35.7162 40.9488 36.8582 40.4758C38.0003 40.0027 39.2569 39.8789 40.4693 40.1201C41.6817 40.3612 42.7953 40.9565 43.6694 41.8306C44.5435 42.7047 45.1388 43.8183 45.3799 45.0307C45.6211 46.2431 45.4973 47.4997 45.0242 48.6418C44.5512 49.7838 43.7501 50.7599 42.7223 51.4467C41.6945 52.1334 40.4861 52.5 39.25 52.5C37.5924 52.5 36.0027 51.8415 34.8306 50.6694C33.6585 49.4973 33 47.9076 33 46.25Z" fill="black"/>
</svg>
