<svg width="400" height="418" viewBox="0 0 400 418" fill="none" xmlns="http://www.w3.org/2000/svg">
<path d="M340.638 60.8067C304.453 23.1099 251.699 1.60557 199.994 0.402391C147.553 -0.818081 95.9852 25.3432 58.929 60.8067C21.636 96.497 0.66614 149.64 0.794531 199.803C0.950945 260.862 15.3811 381.497 66.3327 412.034C111.858 439.32 170.477 358.172 220.769 356.943C255.546 356.094 304.514 376.12 335.189 348.195C372.823 313.934 398.601 251.634 399.195 199.803C399.782 148.595 375.808 97.4472 340.638 60.8067ZM393.447 210.11C394.888 206.212 395.992 202.445 396.751 198.872C396.753 199.194 396.755 199.509 396.754 199.828C396.729 210.046 395.528 220.979 393.279 232.233C393.996 224.737 394.061 217.331 393.447 210.11ZM312.529 358.481C309.621 359.475 306.682 360.215 303.717 360.722C303.735 360.599 303.751 360.47 303.764 360.336C306.718 359.913 309.639 359.304 312.529 358.481ZM101.766 408.74C107.946 409.182 114.5 407.859 121.323 405.249C110.249 411.026 99.5853 414.618 89.5679 414.557C93.3887 413.288 97.4634 411.327 101.766 408.74ZM325.592 324.892C333.909 319.772 342.116 313.096 349.868 305.422C349.293 312.656 348.028 319.411 346.184 325.348C339.794 331.342 332.987 336.458 326.019 340.351C326.371 335.79 326.247 330.546 325.592 324.892ZM83.426 54.3265C84.7161 52.5434 86.1758 50.7602 87.7888 48.9932C94.5905 47.55 102.05 47.0448 109.962 47.551C110.076 47.5583 110.19 47.5656 110.305 47.5729C110.208 47.7174 110.113 47.8584 110.021 48.003C100.636 49.2533 91.7061 51.3907 83.426 54.3265ZM48.8538 90.4919C49.2056 87.5885 49.5065 86.4266 50.7179 82.7792C58.0858 76.6561 66.2449 71.1662 74.9982 66.4204C74.638 67.7582 74.5203 68.6273 74.3325 70.5546C65.1248 76.5962 56.5678 83.276 48.8538 90.4919ZM41.9331 195.486C40.1546 206.803 39.1342 220.196 39.3452 236.377C32.2154 231.577 26.0004 226.004 20.8683 220.151C21.4654 205.419 23.2588 194.684 25.9201 183.819C30.4349 187.917 35.8175 191.77 41.9331 195.486ZM137.746 41.5307C149.261 36.1947 161.173 31.7761 173.179 28.4784C173.764 29.9528 174.115 31.5829 174.224 33.3447C161.879 35.1019 149.621 37.8647 137.746 41.5307ZM292.698 256.275C286.738 249.633 279.957 243.392 273.121 235.424C284.344 222.851 294.753 209.642 304.01 196.871C311.399 204.795 318.326 212.04 324.194 220.079C314.566 232.827 303.86 245.361 292.698 256.275ZM81.6821 131.039C82.5751 131.304 83.4846 131.561 84.4063 131.804C88.4856 132.878 92.8188 133.693 97.3097 134.18C95.6399 146.912 94.5266 160.163 94.0131 173.437C87.7873 172.189 81.792 170.517 76.1706 168.576C75.0048 168.174 73.8553 167.76 72.7232 167.336C74.987 155.114 77.9992 142.895 81.6821 131.039ZM270.984 237.799C277.835 245.762 284.675 251.76 290.632 258.275C279.42 268.986 267.825 277.935 256.086 284.627C249.725 279.827 242.875 274.89 236.067 268.607C248 260.427 259.64 250.304 270.984 237.799ZM220.482 112.203C214.642 120.123 208.129 128.001 201.126 135.375C193.59 123.96 186.047 112.748 178.613 102.688C183.674 97.7315 188.379 92.3899 192.608 86.9088C201.908 94.4572 211.238 103.307 220.482 112.203ZM214.236 239.445C208.207 228.609 202.19 216.367 196.303 203.341C206.216 195.693 215.841 186.373 224.86 176.394C232.338 187.474 239.771 198.066 246.985 207.752C236.642 219.469 225.594 230.5 214.236 239.445ZM195.082 200.625C189.25 187.171 183.526 173.084 177.968 159.498C185.903 154 193.586 147.358 200.818 139.882C208.331 151.407 215.879 163.025 223.312 174.093C214.385 183.929 204.868 193.102 195.082 200.625ZM151.165 173.368C159.526 170.442 167.837 166.265 175.902 160.902C181.457 174.589 187.15 188.73 192.924 202.158C183.02 209.007 172.868 214.019 162.709 217.192C158.604 202.934 154.748 187.97 151.165 173.368ZM194.134 204.953C199.956 218.358 205.979 230.338 211.99 241.182C200.45 249.951 188.62 256.332 177.023 259.11C172.012 248.606 167.718 234.343 163.57 220.164C173.859 216.973 184.129 211.895 194.134 204.953ZM199.19 137.387C192.082 144.676 184.538 151.136 176.746 156.519C171.159 142.884 165.682 129.684 160.401 117.638C166.106 113.787 171.606 109.336 176.767 104.461C184.168 114.585 191.682 125.879 199.19 137.387ZM150.386 170.178C146.827 155.558 143.535 141.337 140.553 128.214C146.61 125.805 152.619 122.69 158.445 118.932C163.7 131.037 169.145 144.27 174.686 157.912C166.748 163.171 158.585 167.276 150.386 170.178ZM160.49 217.856C150.086 220.839 139.664 221.931 129.432 221.609C126.998 207.68 125.005 193.109 123.447 178.758C131.894 178.343 140.481 176.864 149.027 174.088C152.582 188.666 156.409 203.607 160.49 217.856ZM161.349 220.823C165.5 235.085 169.766 249.274 174.761 259.616C162.884 262.096 151.129 261.967 139.507 261.306C135.436 250.867 132.456 238.426 129.944 224.501C140.283 224.878 150.821 223.822 161.349 220.823ZM213.229 243.399C219.314 254.181 225.773 262.527 232.486 268.812C220.368 276.903 207.697 284.447 195.536 285.958C189.183 279.707 183.224 271.554 178.059 261.229C189.699 258.542 201.602 252.224 213.229 243.399ZM233.868 270.086C240.708 276.284 247.592 281.112 253.987 285.802C242.084 292.318 230.022 296.55 217.556 299.28C210.628 296.069 203.369 293.337 196.853 287.224C209.046 285.793 221.751 278.095 233.868 270.086ZM234.69 267.316C228.009 260.946 221.588 252.443 215.478 241.659C226.917 232.657 238.047 221.543 248.467 209.736C255.76 219.457 262.867 228.299 269.593 236.179C258.304 248.673 246.626 259.054 234.69 267.316ZM225.336 171.838C217.864 160.814 210.288 149.272 202.758 137.852C209.891 130.278 216.518 122.201 222.45 114.104C231.636 122.995 240.773 132.138 249.655 141.09C242.344 151.434 234.153 161.922 225.336 171.838ZM123.115 175.643C121.618 161.289 120.548 147.12 119.902 133.771C126.036 132.882 132.286 131.312 138.512 129.004C141.473 142.158 144.733 156.357 148.253 170.902C139.854 173.662 131.416 175.171 123.115 175.643ZM117.767 134.053C118.392 147.365 119.439 161.469 120.916 175.745C116.87 175.888 112.786 175.791 108.775 175.486C104.501 175.161 100.288 174.596 96.2415 173.86C96.7417 160.502 97.845 147.178 99.5056 134.389C102.624 134.649 105.849 134.749 109.095 134.674C111.935 134.608 114.849 134.407 117.767 134.053ZM96.1441 176.708C100.354 177.513 104.727 178.129 109.156 178.496C113.128 178.825 117.19 178.952 121.243 178.839C122.777 193.119 124.75 207.628 127.165 221.514C122.148 221.255 117.151 220.665 112.293 219.84C107.005 218.942 101.775 217.745 96.7228 216.364C95.9144 203.468 95.7306 190.043 96.1441 176.708ZM112.75 222.64C117.643 223.496 122.657 224.107 127.676 224.394C130.165 238.269 133.144 250.634 137.206 261.166C131.544 260.8 125.858 260.285 120.278 259.692C114.166 259.041 108.103 258.285 102.239 257.424C99.4661 244.675 97.7948 231.925 96.8975 219.021C102.033 220.455 107.359 221.699 112.75 222.64ZM175.801 261.72C180.987 271.963 186.957 280.043 193.315 286.221C180.836 287.628 168.2 288.202 155.496 289.654C149.774 282.681 144.612 273.833 140.359 263.436C152.066 264.005 163.887 264.121 175.801 261.72ZM249.078 205.364C241.844 195.694 234.392 185.143 226.889 174.126C235.809 164.058 244.092 153.421 251.484 142.935C260.36 151.894 269.031 160.704 277.278 169.115C268.829 181.159 259.329 193.547 249.078 205.364ZM222.212 109.831C212.973 101.024 203.626 92.1918 194.279 84.7048C198.396 79.1703 202.012 73.6708 205.047 68.305C215.808 73.6214 226.612 79.6805 237.206 86.178C233.007 93.8467 227.966 101.833 222.212 109.831ZM171.228 53.0192C172.725 50.2427 173.937 47.4991 174.836 44.8519C186.736 45.3314 198.83 46.7226 210.746 49.6054C209.12 54.4327 206.859 59.5177 204.019 64.7273C193.117 59.5004 182.063 55.9007 171.228 53.0192ZM202.668 67.1356C199.701 72.2924 196.16 77.6801 192.141 83.0057C182.721 75.5932 173.306 69.078 164.106 63.7306C166.303 60.9608 168.251 58.1376 169.912 55.338C180.712 58.249 191.762 61.8497 202.668 67.1356ZM190.466 85.1854C186.35 90.4406 181.776 95.5658 176.858 100.327C169.371 90.3366 161.955 81.3834 154.779 73.7518C157.551 71.1987 160.137 68.4959 162.481 65.7172C171.662 71.1063 181.065 77.691 190.466 85.1854ZM159.138 114.767C153.857 102.823 148.714 91.9125 143.828 82.3512C147.034 80.2209 150.118 77.8589 153.014 75.3329C160.158 83.0031 167.552 92.0132 175.015 102.08C169.997 106.77 164.661 111.051 159.138 114.767ZM139.84 125.069C136.868 111.947 134.175 99.7894 131.816 88.9425C135.259 87.4246 138.673 85.6102 141.987 83.5381C146.825 93.108 151.931 104.048 157.186 116.05C151.532 119.68 145.707 122.707 139.84 125.069ZM119.757 130.619C119.171 117.263 119.01 104.633 119.271 93.1286C122.789 92.318 126.351 91.1956 129.885 89.7567C132.205 100.598 134.864 112.749 137.804 125.859C131.776 128.125 125.717 129.697 119.757 130.619ZM117.204 93.5681C116.924 105.054 117.063 117.632 117.627 130.92C114.66 131.306 111.682 131.538 108.772 131.626C105.791 131.715 102.808 131.655 99.8973 131.449C101.661 118.603 104.005 106.218 106.861 94.6992C108.689 94.6612 110.581 94.5298 112.495 94.3043C114.061 94.1227 115.633 93.8745 117.204 93.5681ZM97.7024 131.27C93.1327 130.833 88.7347 130.051 84.6121 128.993C83.902 128.811 83.1996 128.62 82.5062 128.422C86.3374 116.463 90.8817 104.785 96.0159 93.7662C96.5013 93.8664 96.9929 93.9567 97.4922 94.0409C99.7609 94.4236 102.17 94.6491 104.674 94.6981C101.818 106.178 99.4709 118.502 97.7024 131.27ZM80.3516 127.776C75.9337 126.372 71.8618 124.652 68.2182 122.671C73.7607 111.712 80.1196 100.994 87.1331 90.8104C89.1727 91.8051 91.421 92.631 93.843 93.2611C88.7128 104.258 84.175 115.881 80.3516 127.776ZM57.4518 114.859C64.2801 104.945 72.0019 95.3374 80.4257 86.2336C81.7964 87.5374 83.3813 88.7139 85.1576 89.7547C78.1432 99.9246 71.7821 110.615 66.2366 121.541C62.8692 119.532 59.9211 117.293 57.4518 114.859ZM67.079 124.951C70.8299 127.041 75.0083 128.867 79.5306 130.359C75.846 142.163 72.8276 154.328 70.5537 166.5C64.2875 164.031 58.5221 161.234 53.3873 158.206C57.1254 146.95 61.7255 135.788 67.079 124.951ZM76.0537 171.267C81.6956 173.246 87.6945 174.964 93.9129 176.261C93.4858 189.53 93.6558 202.884 94.4442 215.729C86.8521 213.55 79.522 210.942 72.6287 208.151C71.0799 207.524 69.5552 206.887 68.0546 206.245C68.6947 194.316 70.1119 182.066 72.2631 169.88C73.5071 170.355 74.7701 170.817 76.0537 171.267ZM194.637 287.474C201.219 293.566 208.45 296.631 215.353 299.745C202.523 302.375 189.343 302.763 175.94 306.621C169.176 302.966 162.621 297.956 156.69 291.074C169.438 289.453 182.117 288.813 194.637 287.474ZM255.339 286.795C258.359 289.021 261.294 291.239 264.116 293.523C267.271 296.079 270.211 298.658 272.925 301.303C261.774 305.851 250.544 308.277 238.864 309.712C235.664 307.863 232.277 306.128 228.719 304.43C225.538 302.912 222.291 301.455 219.014 299.95C231.432 297.303 243.454 293.193 255.339 286.795ZM291.905 259.673C294.71 262.796 297.38 265.954 299.838 269.125C302.63 272.724 305.208 276.42 307.508 280.141C296.804 288.907 285.883 295.752 274.892 300.479C272.216 297.799 269.321 295.179 266.21 292.581C263.391 290.227 260.453 287.94 257.429 285.645C269.133 279.077 280.702 270.262 291.905 259.673ZM271.729 233.796C264.996 225.885 257.877 217.045 250.563 207.344C260.89 195.438 270.46 182.967 278.972 170.848C287.257 179.31 295.17 187.448 302.487 195.244C293.286 207.999 282.92 221.206 271.729 233.796ZM251.447 138.529C242.554 129.627 233.396 120.543 224.18 111.708C230.02 103.54 235.14 95.3809 239.407 87.5332C249.924 94.0584 260.286 101.03 270.242 108.152C265.008 117.849 258.688 128.096 251.447 138.529ZM206.386 65.8734C209.274 60.4898 211.57 55.224 213.221 50.2138C224.974 53.1737 236.721 56.9669 248.17 61.4395C245.899 68.4068 242.678 75.8543 238.588 83.6117C228.001 77.1643 217.183 71.1545 206.386 65.8734ZM65.1026 123.802C59.7369 134.623 55.124 145.757 51.3735 156.984C46.5421 153.973 42.3221 150.744 38.8167 147.292C43.6705 136.865 49.468 126.679 56.0761 116.874C58.6381 119.393 61.6663 121.713 65.1026 123.802ZM70.0932 169.029C67.9317 181.163 66.5002 193.374 65.8413 205.281C58.0295 201.841 50.8254 198.19 44.4024 194.396C46.269 183.099 49.0369 171.717 52.6364 160.504C57.8881 163.614 63.7498 166.486 70.0932 169.029ZM120.976 262.031C126.612 262.549 132.349 263.001 138.054 263.314C142.295 273.809 147.437 282.805 153.14 289.932C146.964 290.676 140.716 291.591 134.555 292.613C127.76 293.739 120.969 295.007 114.374 296.197C109.706 285.379 105.771 272.925 102.826 260.052C108.728 260.813 114.829 261.465 120.976 262.031ZM177.391 307.385C190.848 303.393 204.052 302.952 216.82 300.404C220.131 301.885 223.418 303.318 226.639 304.811C230.197 306.463 233.589 308.153 236.794 309.956C224.764 311.322 211.969 310.761 198.433 315.349C194.784 314.222 191.015 313.043 187.249 311.653C183.946 310.433 180.626 309.038 177.391 307.385ZM293.967 257.701C305.107 246.918 315.812 234.504 325.467 221.848C328.167 225.639 330.707 229.537 333.016 233.489C335.661 238.022 338.028 242.677 340.054 247.358C330.555 258.704 320.17 269.493 309.507 278.482C307.266 274.787 304.755 271.108 302.032 267.51C299.533 264.211 296.817 260.933 293.967 257.701ZM326.136 217.483C320.243 209.347 313.282 202.174 305.9 194.248C315.083 181.41 323.062 169.064 329.635 157.565C337.406 165.435 344.431 173.501 350.511 181.782C343.8 192.985 335.729 204.555 326.136 217.483ZM304.373 192.614C297.047 184.794 289.125 176.653 280.82 168.198C289.274 155.989 296.633 144.166 302.71 133.103C311.76 140.611 320.263 148.212 327.983 155.905C321.462 167.402 313.524 179.759 304.373 192.614ZM279.122 166.468C270.871 158.073 262.185 149.296 253.278 140.365C260.601 129.791 266.99 119.419 272.281 109.615C282.224 116.791 291.826 124.157 300.84 131.56C294.827 142.552 287.523 154.315 279.122 166.468ZM211.555 47.0536C199.628 44.2066 187.524 42.8132 175.604 42.3539C176.266 39.9247 176.645 37.6061 176.736 35.4324C184.797 34.389 193.03 33.4258 201.112 33.6146C205.311 33.7128 209.562 33.9243 213.764 34.244C213.656 38.1667 212.915 42.4599 211.555 47.0536ZM137.12 44.2523C137.126 44.2043 137.131 44.1562 137.137 44.1082C149.207 40.3567 161.677 37.5427 174.224 35.7743C174.109 37.8017 173.713 39.9804 173.041 42.2734C171.958 42.2444 170.874 42.225 169.792 42.2113C158.749 42.0713 147.764 42.7571 137.12 44.2523ZM172.221 44.7637C171.32 47.2258 170.132 49.7789 168.68 52.3574C157.674 49.5835 146.785 47.8405 136.274 47.1595C136.342 47.0023 136.408 46.8452 136.47 46.6879C147.117 45.2 158.125 44.5274 169.2 44.6961C170.207 44.7114 171.213 44.7326 172.221 44.7637ZM167.32 54.6583C165.718 57.2427 163.858 59.8437 161.776 62.4003C152.493 57.1795 143.329 53.0895 134.508 50.1714C134.69 49.9264 134.865 49.6775 135.03 49.4243C145.502 50.1013 156.355 51.8541 167.32 54.6583ZM160.127 64.356C157.907 66.9135 155.474 69.3973 152.872 71.7456C145.661 64.2634 138.62 58.0292 131.93 53.0711C132.272 52.7466 132.602 52.4135 132.92 52.0758C141.696 54.9806 150.842 59.0853 160.127 64.356ZM151.105 73.3048C148.37 75.643 145.485 77.8213 142.506 79.7844C137.637 70.4041 133.015 62.3413 128.763 55.6334C129.267 55.2848 129.758 54.923 130.231 54.5446C136.876 59.4927 143.895 65.7505 151.105 73.3048ZM131.18 86.0046C128.858 75.2716 126.868 65.7943 125.268 57.6765C125.871 57.3841 126.465 57.0673 127.045 56.726C131.246 63.4392 135.83 71.5262 140.673 80.9575C137.595 82.8736 134.41 84.5659 131.18 86.0046ZM119.352 90.0669C119.693 78.6139 120.467 68.2233 121.665 59.1048C122.258 58.9243 122.857 58.7133 123.454 58.479C125.024 66.6309 126.979 76.1161 129.26 86.8291C125.955 88.189 122.632 89.2673 119.352 90.0669ZM119.634 59.6157C118.432 68.7589 117.644 79.1326 117.287 90.5343C115.598 90.8866 113.909 91.1685 112.223 91.3748C110.667 91.5667 109.119 91.6929 107.606 91.7561C110.595 80.2104 114.136 69.4688 118.135 59.8564C118.54 59.8083 118.955 59.7461 119.377 59.6654C119.462 59.65 119.548 59.6349 119.634 59.6157ZM105.409 91.8066C102.742 91.8061 100.181 91.6055 97.7902 91.2186C97.6122 91.1898 97.4356 91.1575 97.2605 91.1291C102.59 80.0008 108.577 69.4688 115.059 59.9079C115.059 59.9079 115.643 59.9542 115.905 59.9578C111.92 69.5906 108.391 80.3143 105.409 91.8066ZM95.0612 90.6817C92.7693 90.1503 90.6361 89.4395 88.6953 88.5635C95.9574 78.2357 103.967 68.3795 112.51 59.3577C112.616 59.3963 112.722 59.431 112.831 59.4662C106.352 69.0582 100.376 79.586 95.0612 90.6817ZM86.6833 87.5651C84.9819 86.6295 83.4694 85.5581 82.1664 84.3693C90.8949 75.1127 100.431 66.3155 110.526 58.2828C110.534 58.2907 110.543 58.2988 110.552 58.3032C101.985 67.3546 93.9585 77.2307 86.6833 87.5651ZM50.6197 159.28C47.0018 170.467 44.2126 181.838 42.3142 193.138C36.2327 189.405 30.9222 185.529 26.5283 181.406C29.333 170.567 33.1245 159.861 37.8153 149.473C41.4326 152.963 45.7321 156.231 50.6197 159.28ZM67.9345 208.691C69.4688 209.349 71.027 210.005 72.6093 210.65C79.554 213.478 86.9461 216.135 94.617 218.374C95.4986 231.227 97.1467 244.128 99.8871 257.073C91.129 255.722 82.63 254.074 74.6258 251.907C72.7425 251.397 70.8868 250.86 69.0636 250.295C67.6353 235.015 67.3976 220.635 67.9345 208.691ZM74.8337 254.976C82.9639 257.034 91.5894 258.539 100.467 259.739C103.374 272.808 107.268 285.529 111.899 296.638C102.139 298.377 92.6148 299.894 83.6317 300.444C81.4446 300.578 79.2925 300.654 77.1744 300.666C73.6237 285.443 70.9685 269.077 69.3759 253.489C71.1663 254.015 72.9861 254.509 74.8337 254.976ZM135.475 294.424C141.703 293.268 148.042 292.226 154.331 291.383C160.241 298.417 166.773 303.58 173.519 307.34C167.028 309.333 160.407 311.871 153.828 314.76C146.536 317.962 139.216 321.623 132.086 325.312C125.923 318.416 120.247 309.283 115.362 298.44C121.953 297.094 128.717 295.68 135.475 294.424ZM154.883 315.972C161.599 312.904 168.357 310.219 174.969 308.127C178.277 309.874 181.66 311.328 185.007 312.583C188.657 313.952 192.349 315.118 195.963 316.225C189.45 318.633 182.766 321.915 176.093 325.816C168.662 330.16 161.152 335.312 153.797 340.73C150.019 339.273 146.259 337.319 142.636 334.785C139.475 332.572 136.381 329.896 133.447 326.795C140.494 322.997 147.707 319.251 154.883 315.972ZM238.191 310.755C244.041 314.163 249.347 318.073 254.015 322.366C243.13 322.686 231.714 322.5 219.278 323.373C213.349 319.712 206.731 317.912 200.041 315.845C213.533 311.311 226.225 312.035 238.191 310.755ZM274.097 302.463C278.99 307.378 283.208 312.632 286.728 317.996C276.633 320.888 266.502 321.922 255.953 322.301C251.315 317.957 246.051 313.993 240.25 310.525C251.852 309.178 263.009 306.874 274.097 302.463ZM308.5 281.773C312.563 288.594 315.794 295.65 318.218 302.593C308.42 309.444 298.513 314.38 288.573 317.447C285.084 312.004 280.904 306.668 276.056 301.662C286.976 297.075 297.836 290.389 308.5 281.773ZM327.416 219.269C337.006 206.472 345.133 194.839 351.896 183.698C354.672 187.592 357.266 191.566 359.612 195.542C362.39 200.246 364.882 205.113 366.869 210.394C359.996 221.496 351.507 233.43 342.044 244.955C340.067 240.39 337.785 235.869 335.254 231.476C332.877 227.351 330.237 223.264 327.416 219.269ZM283.509 78.1189C280.725 86.618 276.745 95.7854 271.66 105.487C261.689 98.3814 251.316 91.4386 240.786 84.9545C244.929 77.054 248.196 69.463 250.503 62.3621C261.85 66.9033 272.975 72.1287 283.6 77.8367C283.563 77.9496 283.545 78.0059 283.509 78.1189ZM201.561 31.1514C193.325 30.9681 184.936 31.9271 176.714 33.0028C176.597 31.1449 176.246 29.4069 175.666 27.8087C187.573 24.6904 199.671 22.6463 211.609 22.1574C212.868 25.0003 213.585 28.2045 213.743 31.7323C209.698 31.4369 205.605 31.2415 201.561 31.1514ZM80.6021 82.7654C79.5219 81.5161 78.6513 80.1623 78.0039 78.7207C87.3959 70.9797 97.593 63.7451 108.343 57.2243C98.4744 65.1208 89.1493 73.7282 80.6021 82.7654ZM76.0786 80.3237C76.8055 81.8471 77.7419 83.2758 78.8771 84.6014C70.4485 93.6807 62.709 103.272 55.8517 113.179C53.6473 110.708 51.9151 108.051 50.6937 105.239C58.3018 96.4545 66.8322 88.1059 76.0786 80.3237ZM66.7476 249.549C57.5656 246.517 49.0961 242.608 41.5705 237.832C41.3005 221.643 42.2794 208.056 44.029 196.733C50.544 200.552 57.8328 204.233 65.7171 207.722C65.1612 219.637 65.3627 234.106 66.7476 249.549ZM84.016 303.56C93.1816 302.773 102.909 300.963 112.879 298.946C117.708 310.059 123.333 319.498 129.459 326.677C118.985 332.131 108.721 337.626 99.0287 341.916C96.6196 342.982 94.2478 343.979 91.9167 344.882C86.4314 333.465 81.7121 319.31 77.9548 303.933C79.9445 303.863 81.9656 303.737 84.016 303.56ZM177.171 326.649C183.984 322.603 190.85 319.188 197.57 316.715C204.233 318.743 210.746 320.741 216.871 323.568C210.65 325.1 204.305 327.671 198.01 331.001C190.824 334.803 183.564 339.671 176.463 345.043C169.44 344.629 162.374 343.736 155.507 341.356C162.666 336.004 169.96 330.934 177.171 326.649ZM255.263 323.534C259.645 327.717 263.481 332.232 266.803 336.629C257.261 336.368 247.284 335.746 236.513 335.998C231.74 332.004 226.534 327.996 220.913 324.4C233.207 323.565 244.495 323.793 255.263 323.534ZM287.663 319.45C290.923 324.61 293.577 329.866 295.669 334.804C286.802 336.592 277.888 336.875 268.629 336.674C265.331 332.246 261.528 327.703 257.19 323.484C267.635 323.167 277.666 322.221 287.663 319.45ZM340.949 249.476C344.448 257.989 346.928 266.789 348.424 275.476C339.499 285.248 329.908 294.141 320.158 301.213C317.744 294.179 314.529 287.041 310.494 280.141C321.096 271.323 331.442 260.698 340.949 249.476ZM343.99 121.719C340.609 131.421 335.742 141.93 329.484 153.224C321.731 145.508 313.218 137.895 304.173 130.402C310.144 119.265 314.8 108.857 318.039 99.2497C327.501 106.052 336.322 113.289 344.268 120.906C344.157 121.231 344.101 121.393 343.99 121.719ZM315.797 98.3897C312.64 107.787 308.107 117.966 302.298 128.859C293.263 121.454 283.651 114.093 273.701 106.947C278.888 97.0526 282.952 87.7042 285.795 79.0341L285.795 79.0302C296.381 84.8183 306.535 91.1237 315.994 97.793C315.915 98.0316 315.876 98.1509 315.797 98.3897ZM248.993 58.79C237.536 54.3394 225.78 50.5756 214.014 47.6532C215.382 42.9339 216.134 38.514 216.257 34.4524C228.333 35.5048 240.38 37.5145 252.093 40.4289C252.007 45.9757 250.967 52.1151 248.993 58.79ZM216.251 31.9331C216.12 28.327 215.458 25.0298 214.28 22.0666C216.425 22.0074 218.565 21.9788 220.699 21.9884C230.194 22.0306 239.693 22.7745 248.942 24.2003C250.803 28.1973 251.852 32.7367 252.06 37.7846C240.34 34.9154 228.303 32.9434 216.251 31.9331ZM77.1978 76.4896C76.7796 74.9838 76.5804 73.3939 76.6019 71.7424C86.1583 65.5626 96.5049 60.0049 107.392 55.2093C96.7103 61.6607 86.5649 68.8196 77.1978 76.4896ZM54.4684 115.2C47.8417 124.983 42.0175 135.148 37.1316 145.558C33.9293 142.104 31.4291 138.433 29.6941 134.537C35.2137 124.999 41.7115 115.841 49.0379 107.174C50.3838 110.015 52.2053 112.696 54.4684 115.2ZM67.0507 252.789C68.5966 268.527 71.1961 285.128 74.6903 300.656C64.3286 300.47 54.7592 298.568 46.2688 294.585C43.6613 276.456 42.0814 257.984 41.6448 241.366C49.2701 246.1 57.815 249.9 67.0507 252.789ZM75.4593 303.994C79.1482 319.638 83.7905 334.128 89.1993 345.903C77.9924 349.974 67.6494 351.808 58.4929 350.595C53.6193 335.173 49.7102 317.185 46.8918 298.789C55.4516 302.504 65.0664 304.105 75.4593 303.994ZM318.872 304.523C321.066 311.187 322.549 317.768 323.39 323.85C314.81 329.008 306.136 332.482 297.413 334.434C295.349 329.458 292.727 324.151 289.5 318.923C299.345 315.975 309.159 311.195 318.872 304.523ZM367.805 212.959C371.143 222.454 373.29 232.308 374.235 242.22C367.48 252.532 359.367 263.218 350.496 273.178C348.959 264.444 346.453 255.623 342.948 247.092C352.369 235.747 360.864 223.964 367.805 212.959ZM383.101 178.875C379.74 187.81 375.048 196.84 368.597 207.566C366.676 202.596 364.284 198.163 361.688 193.726C359.187 189.453 356.423 185.205 353.47 181.074C360.07 169.939 365.213 159.511 368.794 149.807C371.47 153.802 373.962 157.932 376.213 162.118C378.971 167.242 381.414 172.534 383.477 177.855C383.326 178.263 383.251 178.467 383.101 178.875ZM366.892 148.463C363.443 157.972 358.47 168.202 352.071 179.148C345.961 170.842 338.921 162.766 331.146 154.892C337.595 143.351 342.617 132.613 346.104 122.689C354.053 130.504 361.159 138.796 367.229 147.513C367.094 147.893 367.027 148.083 366.892 148.463ZM284.447 75.1306C273.801 69.4321 262.671 64.2226 251.328 59.709C253.325 52.9645 254.403 46.7278 254.549 41.0521C266.142 44.0698 277.463 47.971 288.234 52.6035C288.185 59.3723 286.918 66.8824 284.447 75.1306ZM137.418 39.2173C147.746 32.7932 158.437 27.3269 169.226 23.0461C170.388 24.0174 171.358 25.1295 172.128 26.3779C160.375 29.6441 148.713 33.9867 137.418 39.2173ZM135.331 37.9386C144.149 30.7019 153.332 24.5179 162.652 19.6081C164.27 20.1115 165.743 20.7481 167.053 21.5223C156.27 25.8986 145.611 31.4509 135.331 37.9386ZM132.597 37.4267C132.551 37.4142 132.505 37.4051 132.46 37.3927C139.247 29.8147 146.416 23.3754 153.796 18.2422C155.814 18.3016 157.725 18.4999 159.508 18.8328C150.305 23.8762 141.262 30.149 132.597 37.4267ZM129.96 37.0699C129.738 37.0651 129.513 37.0636 129.285 37.0728C133.517 29.8689 138.118 23.838 142.992 19.0531C145.438 18.6472 147.814 18.3875 150.089 18.2791C143.124 23.4278 136.367 29.7396 129.96 37.0699ZM105.874 53.4347C95.66 57.9649 85.9251 63.1643 76.8713 68.9159C77.0583 67.5006 77.2524 66.7635 77.8397 64.9259C78.8299 64.4126 79.8157 63.9105 80.7751 63.4408C90.3042 58.7746 99.1998 55.5226 105.874 53.4347ZM74.2888 73.2606C74.3845 74.9471 74.6898 76.5801 75.2018 78.1398C65.9664 85.8624 57.4311 94.1492 49.7977 102.869C48.8732 100.008 48.444 96.9867 48.5231 93.8336C56.2795 86.3863 64.9383 79.4915 74.2888 73.2606ZM36.1116 147.762C31.3947 158.119 27.564 168.8 24.704 179.628C20.6603 175.521 17.5095 171.16 15.3415 166.481C18.6969 156.282 23.0689 146.363 28.3595 136.885C30.2546 140.724 32.8571 144.342 36.1116 147.762ZM20.7468 223.834C26.0007 229.702 32.2719 235.227 39.4085 239.936C39.7869 256.546 41.2892 275.081 43.8096 293.362C35.7859 289.122 28.8148 282.977 23.0617 275.508C21.1451 256.958 20.3435 239.082 20.7468 223.834ZM99.5628 344.633C109.514 339.98 120.061 334.057 130.812 328.218C133.839 331.571 137.037 334.453 140.304 336.824C143.776 339.339 147.379 341.31 151.011 342.798C140.346 350.776 129.859 359.266 119.936 366.736C117.411 368.636 114.927 370.471 112.484 372.222C108.673 369.424 104.991 365.696 101.544 361.102C98.6142 357.194 95.8063 352.601 93.1944 347.47C95.2865 346.588 97.4097 345.64 99.5628 344.633ZM120.51 368.82C130.784 360.882 141.663 351.859 152.713 343.462C159.502 345.967 166.508 346.929 173.494 347.322C163.324 355.247 153.301 364.202 143.791 372.676C141.297 374.899 138.841 377.084 136.423 379.221C128.672 379.611 121.235 377.977 114.341 373.504C116.369 371.994 118.428 370.429 120.51 368.82ZM178.533 345.152C185.304 340.065 192.191 335.497 198.996 331.903C205.573 328.43 212.334 325.06 218.516 324.576C224.133 328.123 229.359 332.084 234.171 336.064C229.059 336.244 223.788 335.981 218.181 337.525C211.691 339.312 205.1 342.255 198.627 345.934C192.029 345.474 185.279 345.468 178.533 345.152ZM238.233 337.45C248.795 337.24 258.583 337.878 267.949 338.168C270.994 342.314 273.623 346.342 275.875 349.853C267.835 349.397 259.474 348.602 250.603 348.269C246.827 345.014 242.711 341.263 238.233 337.45ZM277.622 349.947C275.406 346.461 272.801 342.413 269.762 338.219C278.881 338.45 287.657 338.212 296.38 336.524C298.25 341.154 299.633 345.481 300.568 349.164C293.072 350.314 285.478 350.339 277.622 349.947ZM325.309 322.668C324.455 316.5 322.978 309.865 320.809 303.166C330.446 296.296 339.95 287.621 348.838 278.038C350.092 286.367 350.468 294.617 350.07 302.338C342.197 310.318 333.816 317.302 325.309 322.668ZM390.861 211.057C387.491 219.684 382.534 229.16 376.28 239.045C375.2 229.222 372.954 219.504 369.562 210.139C376.216 199.296 381.112 190.012 384.636 180.961C387.984 190.285 390.353 199.825 391.285 209.952C391.116 210.393 391.031 210.614 390.861 211.057ZM345.193 118.101C337.225 110.505 328.395 103.288 318.934 96.5089C321.794 87.4025 323.311 79.0959 323.478 71.5514C332.933 77.8021 341.717 84.7005 349.609 92.1361C349.68 99.9394 348.204 108.582 345.193 118.101ZM316.873 95.0427C307.402 88.3823 297.243 82.0949 286.654 76.3203C289.157 68.0689 290.494 60.5113 290.655 53.6607C301.359 58.4098 311.592 63.9091 321.1 70.0051C321.107 77.5124 319.695 85.8501 316.873 95.0427ZM254.551 38.4097C254.416 33.3507 253.493 28.7621 251.807 24.6627C262.926 26.556 273.807 29.4533 284.188 33.2423C286.565 38.1156 287.91 43.6441 288.182 49.8116C277.4 45.2255 266.099 41.3732 254.551 38.4097ZM220.911 19.6454C218.355 19.6337 215.793 19.6688 213.222 19.7572C211.882 17.1908 210.11 14.9255 207.939 12.9673C214.118 12.2678 220.329 11.919 226.438 11.933C230.739 11.943 235.07 12.1328 239.313 12.5035C242.73 15.0601 245.503 18.1018 247.575 21.6068C238.83 20.343 229.872 19.6861 220.911 19.6454ZM210.436 19.8692C198.56 20.4348 186.536 22.5449 174.709 25.6746C173.973 24.3146 173.045 23.0861 171.937 22.0001C182.75 17.9151 193.77 14.8202 204.662 13.3717C207.033 15.2086 208.97 17.3791 210.436 19.8692ZM139.388 19.7418C134.911 24.5626 130.688 30.4487 126.798 37.3344C126.524 37.3809 126.243 37.4342 125.96 37.4979C125.762 37.5402 125.566 37.5859 125.368 37.6351C126.845 31.269 128.689 26.074 130.873 22.0527C133.285 21.267 135.727 20.5864 138.138 20.0244C138.558 19.927 138.974 19.8329 139.388 19.7418ZM123.219 38.2687C122.605 38.4823 121.985 38.7199 121.368 38.9856C120.23 33.8217 119.455 29.7459 119.073 26.7242C122.052 25.3334 125.068 24.0875 128.07 23.0115C126.143 27.1173 124.519 32.2044 123.219 38.2687ZM98.928 38.8896C101.293 37.0811 103.788 35.3394 106.38 33.6901C109.116 35.407 112.34 38.1601 115.97 42.0158C115.498 42.3523 115.039 42.6999 114.596 43.0551C108.981 40.7569 103.719 39.3862 98.928 38.8896ZM105.588 50.9479C98.7759 53.0768 89.6528 56.3961 79.8472 61.2338C79.6146 61.3471 79.3849 61.4676 79.1582 61.5881C79.8322 60.0437 80.2207 59.3438 81.3359 57.4702C88.8753 54.5826 97.0121 52.3885 105.588 50.9479ZM28.6658 131.95C27.301 128.052 26.6687 123.926 26.7912 119.605C32.3926 111.245 38.9425 103.345 46.2895 96.0213C46.4213 99.0939 47.017 102.053 48.0667 104.872C40.7486 113.444 34.2341 122.506 28.6658 131.95ZM24.0738 182.082C21.3693 192.896 19.5224 203.323 18.8272 217.74C14.1307 211.99 10.4842 206.094 8.00132 200.609C9.1533 189.52 11.2674 179.59 14.3984 169.436C16.7669 173.93 20.0176 178.121 24.0738 182.082ZM44.4172 297.64C47.1383 316.155 50.9255 334.363 55.6628 350.116C47.0839 348.357 39.6376 343.795 33.4847 336.893C29.1049 319.156 25.7944 299.685 23.638 280.808C29.5028 287.96 36.4782 293.737 44.4172 297.64ZM90.4669 348.587C93.2094 354.223 96.1712 359.255 99.2683 363.5C102.496 367.922 105.918 371.558 109.45 374.361C97.9822 382.343 87.3768 388.228 77.9763 390.8C74.1803 386.108 70.5821 380.207 67.2855 373.316C64.593 367.687 62.0733 361.347 59.7819 354.542C68.983 355.268 79.3156 353.004 90.4669 348.587ZM144.347 374.233C154.329 365.221 164.874 355.706 175.555 347.424C182.181 347.702 188.827 347.597 195.339 347.868C186.367 353.318 177.505 360.113 169.058 367.058C166.751 368.955 164.479 370.858 162.24 372.753C154.313 375.775 146.511 378.239 139.041 379.017C140.79 377.445 142.56 375.846 144.347 374.233ZM219.037 338.921C224.973 337.364 230.516 337.678 235.899 337.511C240.309 341.227 244.392 344.914 248.162 348.191C244.138 348.079 239.955 348.071 235.677 348.212C230.482 348.385 225.128 348.443 219.641 349.473C213.691 347.742 207.539 346.695 201.276 346.143C207.153 342.984 213.125 340.469 219.037 338.921ZM277.014 351.632C278.86 354.521 280.452 357.005 281.803 358.907C275.447 358.453 268.894 357.668 262.098 356.954C259.242 355.288 256.111 352.912 252.703 350.056C261.21 350.415 269.255 351.183 277.014 351.632ZM323.668 326.05C324.323 331.753 324.405 336.989 323.975 341.457C316.844 345.18 309.586 347.599 302.246 348.891C301.315 345.161 299.951 340.812 298.116 336.168C306.686 334.321 315.215 331.009 323.668 326.05ZM374.508 245.555C375.156 255.031 374.736 264.603 373.364 273.838C367.242 282.874 360.072 291.876 352.33 300.009C352.64 292.248 352.204 284.027 350.923 275.759C359.666 266.087 367.716 255.671 374.508 245.555ZM384.644 174.497C382.74 169.774 380.546 165.085 378.106 160.523C375.616 155.867 372.835 151.281 369.837 146.87C372.861 138.012 374.512 129.827 374.778 122.297C377.168 126.044 379.4 129.913 381.43 133.843C384.217 139.237 386.675 144.839 388.678 150.223C388.86 157.645 387.509 165.764 384.644 174.497ZM368.235 144.554C362.119 135.892 354.997 127.655 347.053 119.895C350.096 110.596 351.716 102.092 351.904 94.3411C359.707 101.967 366.663 110.218 372.593 118.976C372.721 126.712 371.264 135.235 368.235 144.554ZM323.471 68.5793C323.301 62.124 322.089 56.2413 319.867 50.9415C328.665 56.6239 336.845 63.0246 344.104 69.8668C347.184 75.4343 348.992 81.7421 349.479 88.7444C341.588 81.4579 332.849 74.7007 323.471 68.5793ZM290.653 50.8791C290.503 44.819 289.385 39.3283 287.326 34.418C297.493 38.3459 307.219 43.1519 316.277 48.6904C319.061 54.0843 320.656 60.1972 321.02 67.0023C311.508 60.9783 301.303 55.5506 290.653 50.8791ZM250.603 22.0712C248.808 18.6136 246.417 15.5615 243.476 12.9258C253.369 14.064 263.057 16.1882 272.145 19.144C276.411 22.2375 279.879 25.9162 282.484 30.1436C272.234 26.5546 261.527 23.8297 250.603 22.0712ZM226.437 9.73621C219.539 9.72065 212.512 10.1667 205.542 11.0464C203.301 9.45055 200.736 8.11193 197.878 7.08606C205.054 5.70998 212.25 5.16324 219.352 5.18207C220.897 5.1861 222.438 5.22203 223.778 5.25719C228.148 6.44481 232.089 8.03835 235.539 10.0228C232.517 9.83957 229.471 9.74294 226.437 9.73621ZM169.988 20.3627C168.726 19.45 167.301 18.6764 165.726 18.0367C174.813 13.5352 184.105 10.1925 193.39 8.03643C196.582 8.9015 199.46 10.0349 201.969 11.5357C191.303 13.1108 180.538 16.2952 169.988 20.3627ZM162.838 17.0652C161.06 16.5793 159.138 16.2389 157.097 16.0443C164.005 11.6421 171.133 8.32344 178.334 6.09862C182.032 6.15088 185.524 6.46056 188.771 7.02478C180.047 9.33797 171.345 12.6957 162.838 17.0652ZM153.505 15.8578C153.365 15.857 153.294 15.8566 153.154 15.8559C150.881 15.8426 148.485 15.9871 145.996 16.2906C150.478 12.4355 155.183 9.55333 159.922 7.66431C163.94 6.97138 167.837 6.50705 171.564 6.26922C165.428 8.67308 159.378 11.874 153.505 15.8578ZM117.723 40.8637C114.27 37.1083 111.152 34.3064 108.436 32.4139C111.252 30.7051 114.161 29.1112 117.118 27.6589C117.577 30.7393 118.402 34.7867 119.564 39.8367C118.937 40.1577 118.322 40.5035 117.723 40.8637ZM96.8305 40.9747C101.635 41.2348 106.99 42.4492 112.761 44.684C112.5 44.941 112.25 45.1984 112.01 45.4562C111.22 45.3913 110.434 45.3337 109.656 45.287C102.893 44.8816 96.4516 45.2059 90.4635 46.2149C92.2774 44.4246 94.24 42.6618 96.3266 40.9509C96.5281 40.9605 96.629 40.9651 96.8305 40.9747ZM60.1927 65.7568C62.3764 62.865 64.8256 59.9882 67.47 57.1853C72.3927 54.0101 77.9454 51.5584 84.014 49.9042C82.4112 51.8277 80.9875 53.7657 79.7594 55.6997C72.7476 58.4565 66.1899 61.8307 60.1927 65.7568ZM75.954 63.2682C75.9464 63.2938 75.9427 63.3063 75.935 63.3318C67.4496 67.7899 59.5615 72.866 52.4287 78.465C53.592 75.9256 54.9782 73.3853 56.4957 70.9574C62.9244 66.1962 70.1262 62.121 77.938 58.8347C77.1556 60.3234 76.4922 61.8024 75.954 63.2682ZM47.5575 85.4939C46.8657 88.054 46.4485 90.5337 46.3123 92.9178C39.1622 99.8862 32.7336 107.383 27.155 115.314C27.6238 111.949 28.5185 108.464 29.7885 104.979C34.8816 97.9735 40.8479 91.439 47.5575 85.4939ZM27.2439 134.407C21.9562 143.718 17.5457 153.464 14.1062 163.491C12.4022 158.827 11.62 153.871 11.7488 148.855C15.1304 139.806 19.4748 131.082 24.6827 122.845C24.8947 126.875 25.7545 130.735 27.2439 134.407ZM7.6313 204.844C10.3619 210.245 14.0742 215.943 18.676 221.443C18.1788 236.291 18.8525 253.804 20.6071 272.132C15.4277 264.611 11.3842 256.016 8.56805 247.155C7.12742 231.037 6.7883 216.51 7.6313 204.844ZM56.936 354.219C59.4149 361.963 62.1696 369.151 65.1263 375.456C68.0367 381.665 71.1848 387.108 74.5045 391.61C65.8663 393.282 58.3616 391.935 52.1379 387.739C48.3341 381.015 44.7996 373.034 41.6251 364.216C39.2649 357.655 37.0756 350.558 35.0996 343.174C41.2974 349.194 48.622 352.982 56.936 354.219ZM111.291 375.744C118.021 380.503 125.292 382.451 132.89 382.328C121.94 391.892 111.786 400.102 102.756 405.534C94.5794 404.768 86.9935 400.823 80.1946 393.381C89.5588 390.199 100.031 383.917 111.291 375.744ZM135.486 382.205C142.615 381.679 150.072 379.494 157.673 376.643C148.143 384.798 139.278 392.504 131.516 398.367C122.781 402.74 114.39 405.525 106.555 405.672C115.359 399.727 125.095 391.485 135.486 382.205ZM169.575 368.42C178.685 360.911 188.272 353.609 197.958 347.996C203.884 348.337 209.741 349.058 215.449 350.412C208.388 352.241 201.418 355.281 194.743 358.843C192.711 359.927 190.709 361.063 188.995 362.094C181.398 364.887 173.76 368.193 166.251 371.186C167.351 370.263 169.575 368.42 169.575 368.42ZM236.388 349.968C241.137 349.8 245.778 349.823 250.226 349.965C253.248 352.536 256.084 354.801 258.738 356.61C256.111 356.349 253.435 356.103 250.745 355.888C246.744 355.57 242.647 355.326 238.715 355.172C233.962 354.154 228.921 352.669 223.652 350.843C227.976 350.402 232.242 350.114 236.388 349.968ZM278.75 351.725C286.372 352.112 293.744 352.099 301.018 351.039C301.734 354.22 302.077 356.805 302.069 358.621C296.043 359.402 289.889 359.408 283.567 359.022C282.267 357.254 280.667 354.75 278.75 351.725ZM302.693 350.779C309.781 349.587 316.787 347.357 323.674 343.914C323.091 347.799 322.071 350.992 320.657 353.347C315.189 355.845 309.554 357.48 303.806 358.375C303.734 356.396 303.369 353.82 302.693 350.779ZM344.829 329.303C342.91 334.386 340.534 338.764 337.829 342.221C333.328 346.081 328.523 349.37 323.546 351.942C324.587 349.43 325.339 346.359 325.773 342.826C332.313 339.317 338.73 334.727 344.829 329.303ZM372.594 278.457C371.012 287.034 368.625 295.279 365.678 302.666C360.77 309.714 355.115 316.533 349.02 322.607C350.619 316.676 351.698 310.085 352.164 303.112C359.582 295.498 366.527 287.044 372.594 278.457ZM389.181 245.039C385.923 252.959 381.451 261.358 376.025 269.808C377.14 260.789 377.366 251.525 376.604 242.381C382.902 232.682 388.007 223.308 391.623 214.718C392.104 224.266 391.416 234.097 389.702 243.752C389.493 244.267 389.389 244.524 389.181 245.039ZM392.927 205.246C391.689 195.637 389.212 186.578 385.867 177.651C388.564 170.04 390.156 162.855 390.631 156.137C392.488 162.058 393.962 168.186 395.026 174.393C395.571 178.51 395.983 182.63 396.253 186.547C396.088 192.475 395.047 198.577 392.927 205.246ZM383.132 132.42C380.632 127.563 377.823 122.79 374.783 118.214C374.677 115.066 374.296 112.016 373.642 109.071C379.331 119.424 384.028 130.227 387.626 141.339C387.714 141.755 387.797 142.168 387.875 142.582C386.428 139.143 384.843 135.744 383.132 132.42ZM351.896 91.0179C351.716 85.025 350.631 79.493 348.669 74.4452C352.001 77.8899 355.382 81.6124 358.408 85.5076C362.013 90.1491 365.298 95.085 368.175 99.695C370.4 104.316 371.798 109.324 372.341 114.649C366.402 106.25 359.535 98.3399 351.896 91.0179ZM313.823 44.5716C305.025 39.4488 295.648 35.0101 285.892 31.3775C283.933 27.6571 281.386 24.315 278.289 21.3617C283.589 23.3808 288.85 25.7547 293.977 28.4331C297.773 30.6202 301.727 33.1067 305.989 35.958C309.061 38.5566 311.685 41.4392 313.823 44.5716ZM240.296 10.39C237.863 8.66117 235.144 7.16387 232.164 5.89768C233.077 6.01275 233.982 6.14069 234.868 6.26537C244.759 8.16745 254.569 10.9108 263.959 14.381C264.184 14.4863 264.408 14.5918 264.629 14.7005C256.709 12.5992 248.558 11.1542 240.296 10.39ZM142.241 16.8502C140.846 17.0959 139.416 17.3875 137.957 17.7285C136.205 18.1377 134.432 18.6092 132.662 19.1363C134.419 16.6116 136.377 14.7078 138.43 13.4599C142.031 12.1908 145.573 11.0579 148.936 10.0926C149.376 9.97577 149.596 9.91756 150.037 9.80057C150.72 9.61672 151.403 9.43287 152.087 9.27227C148.691 11.3127 145.399 13.8374 142.241 16.8502ZM118.93 21.5417C123.476 19.3628 128.128 17.3509 132.82 15.5339C131.654 16.851 130.571 18.3767 129.573 20.1126C126.007 21.3039 122.404 22.7363 118.842 24.3748C118.748 22.8732 118.827 22.0212 118.93 21.5417ZM103.439 29.794C107.745 27.2575 112.184 24.8581 116.685 22.6302C116.667 23.3867 116.713 24.2764 116.819 25.327C113.24 27.0624 109.722 29.0002 106.347 31.0901C105.322 30.5142 104.35 30.081 103.439 29.794ZM88.7228 39.2903C92.4698 36.6502 96.3732 34.0832 100.388 31.6238C100.563 31.6102 100.743 31.6067 100.928 31.6136C101.873 31.6494 102.955 31.9387 104.159 32.4831C101.148 34.4453 98.2726 36.5249 95.5884 38.6842C93.1851 38.6429 90.8908 38.8467 88.7228 39.2903ZM73.2749 51.5094C74.2949 50.5656 75.3526 49.587 76.4363 48.6687C78.4844 46.9334 80.6734 45.2248 82.7211 43.6518C85.7241 42.1306 89.1152 41.2304 92.8327 40.9889C90.5779 42.9477 88.4902 44.9481 86.6032 46.9716C81.8625 48.037 77.4046 49.5593 73.2749 51.5094ZM48.9826 81.0458C48.9417 81.1638 48.9212 81.223 48.8803 81.3411C48.4451 81.6982 48.2276 81.8765 47.7926 82.2331C47.061 82.8207 46.3311 83.408 45.6375 84.0295C41.4073 87.8202 37.4365 91.8985 33.7799 96.2138C33.8641 96.0528 33.9499 95.8886 34.0356 95.7309C36.8634 91.3971 39.4856 87.6375 42.0155 84.2969C45.0583 80.814 48.3948 77.5431 51.9717 74.5343C50.8001 76.7215 49.7998 78.8967 48.9826 81.0458ZM12.6995 141.053C12.8492 140.138 13.0156 139.308 13.2186 138.474C15.3621 132.13 17.8765 125.838 20.6812 119.79C22.2873 116.663 24.0369 113.614 25.9103 110.669C25.2199 113.517 24.8069 116.284 24.6766 118.949C20.0356 125.982 16.0219 133.383 12.6995 141.053ZM4.01136 182.8C4.26737 179.836 4.59517 176.897 4.97641 174.015C6.1522 167.21 7.80441 160.544 9.89861 154.136C10.2839 158.52 11.3424 162.694 13.0604 166.646C9.91963 176.435 7.67938 186.543 6.39142 196.708C4.87047 192.405 4.07056 187.731 4.01136 182.8ZM21.1619 277.614C23.1249 296.016 26.172 315.141 30.2241 332.854C25.4092 326.281 21.5156 318.057 18.6343 308.944C18.3813 307.92 18.255 307.408 18.0024 306.384C17.5545 304.574 17.0875 302.754 16.7004 300.983C13.371 285.756 11.0468 270.225 9.46977 256.1C12.4966 263.814 16.4119 271.166 21.1619 277.614ZM31.8643 339.72C34.1571 348.917 36.7653 357.769 39.621 365.826C41.7865 371.933 44.1239 377.664 46.6033 382.871C45.6877 381.856 44.8009 380.764 43.9526 379.603C35.9173 365.127 28.9968 346.613 23.26 326.5C25.7766 331.5 28.6491 335.957 31.8643 339.72ZM76.7109 394.439C83.1099 402.176 90.2394 406.713 97.9354 408.228C90.8672 411.843 84.5248 413.517 79.0795 413.087C77.1927 412.548 75.3285 411.867 73.5293 411.044C67.0304 407.465 61.0955 401.585 55.8232 393.728C61.8654 396.291 68.8627 396.534 76.7109 394.439ZM161.605 375.122C167.893 372.616 174.303 369.776 180.73 367.138C178.04 368.854 175.36 370.622 172.725 372.387C164.464 377.512 156.446 383.111 148.989 388.152C145.755 390.225 142.595 392.192 139.536 393.984C146.419 388.295 153.826 381.763 161.605 375.122ZM283.213 360.784C283.353 360.958 283.492 361.125 283.627 361.282C279.319 360.901 274.772 360.267 270.019 359.553C274.516 360.037 278.908 360.491 283.213 360.784ZM361.9 311C361.22 312.358 360.517 313.693 359.792 315.001C354.639 323.042 349.268 330.203 343.865 336.195C345.38 333.266 346.72 330.022 347.86 326.515C352.845 321.781 357.575 316.524 361.9 311ZM387.664 253.204C387.107 255.456 386.5 257.703 385.846 259.923C382.632 269.519 378.76 279.127 374.513 288.156C373.151 290.729 371.707 293.263 370.2 295.733C372.452 288.947 374.208 281.77 375.373 274.423C380.165 267.288 384.32 260.117 387.664 253.204ZM318.02 47.0948C317.121 45.4424 316.104 43.847 314.975 42.3195C321.666 47.3128 328.055 52.6834 334.079 58.356C328.984 54.3305 323.615 50.5627 318.02 47.0948ZM193.715 5.82218C191.041 5.14288 188.169 4.65261 185.133 4.3462C187.809 3.7887 190.552 3.3578 193.327 3.06195C193.818 3.04274 194.064 3.03333 194.556 3.01412C196.362 2.94573 198.17 2.87407 199.991 2.86811C203.77 2.85543 207.748 3.03294 212.046 3.33359C205.947 3.68477 199.811 4.47799 193.715 5.82218ZM55.1626 69.2759C54.549 69.7364 53.9399 70.2028 53.337 70.6789C54.3708 69.5387 55.4186 68.4058 56.4836 67.2833C56.0218 67.9521 55.5815 68.6185 55.1626 69.2759ZM5.78103 236.361C5.71875 236.057 5.65954 235.755 5.60043 235.453C4.02882 221.467 3.21864 209.304 3.22996 199.828C3.23246 197.804 3.26691 195.796 3.34281 193.687C3.96664 196.27 4.82086 198.66 5.89349 201.139C4.95607 210.845 4.93832 222.83 5.78103 236.361ZM219.275 351.413C222.89 352.449 226.386 353.773 229.777 354.754C226.586 354.619 223.65 354.512 220.757 354.55C215.099 354.624 209.176 355.588 202.696 357.663C200.937 358.13 199.194 358.641 197.473 359.181C204.533 355.642 211.876 352.803 219.275 351.413ZM301.827 360.585C301.768 360.761 301.699 360.913 301.621 361.042C296.305 361.764 290.993 361.806 285.685 361.437C285.506 361.298 285.312 361.118 285.101 360.9C290.797 361.222 296.36 361.212 301.827 360.585Z" fill="#231F20"/>
</svg>
