<svg width="81" height="80" viewBox="0 0 81 80" fill="none" xmlns="http://www.w3.org/2000/svg">
<path opacity="0.2" d="M35.5 52.5C35.5 54.4778 34.9135 56.4112 33.8147 58.0557C32.7159 59.7002 31.1541 60.9819 29.3268 61.7388C27.4996 62.4957 25.4889 62.6937 23.5491 62.3079C21.6093 61.922 19.8275 60.9696 18.4289 59.5711C17.0304 58.1725 16.078 56.3907 15.6922 54.4509C15.3063 52.5111 15.5043 50.5004 16.2612 48.6732C17.0181 46.8459 18.2998 45.2841 19.9443 44.1853C21.5888 43.0865 23.5222 42.5 25.5 42.5C28.1522 42.5 30.6957 43.5536 32.5711 45.4289C34.4464 47.3043 35.5 49.8478 35.5 52.5ZM25.5 10C23.5222 10 21.5888 10.5865 19.9443 11.6853C18.2998 12.7841 17.0181 14.3459 16.2612 16.1732C15.5043 18.0004 15.3063 20.0111 15.6922 21.9509C16.078 23.8907 17.0304 25.6725 18.4289 27.0711C19.8275 28.4696 21.6093 29.422 23.5491 29.8079C25.4889 30.1937 27.4996 29.9957 29.3268 29.2388C31.1541 28.4819 32.7159 27.2002 33.8147 25.5557C34.9135 23.9112 35.5 21.9778 35.5 20C35.5 17.3478 34.4464 14.8043 32.5711 12.9289C30.6957 11.0536 28.1522 10 25.5 10ZM55.5 42.5C53.5222 42.5 51.5888 43.0865 49.9443 44.1853C48.2998 45.2841 47.0181 46.8459 46.2612 48.6732C45.5043 50.5004 45.3063 52.5111 45.6922 54.4509C46.078 56.3907 47.0304 58.1725 48.4289 59.5711C49.8275 60.9696 51.6093 61.922 53.5491 62.3079C55.4889 62.6937 57.4996 62.4957 59.3268 61.7388C61.1541 60.9819 62.7159 59.7002 63.8147 58.0557C64.9135 56.4112 65.5 54.4778 65.5 52.5C65.5 49.8478 64.4464 47.3043 62.5711 45.4289C60.6957 43.5536 58.1522 42.5 55.5 42.5ZM55.5 30C57.4778 30 59.4112 29.4135 61.0557 28.3147C62.7002 27.2159 63.9819 25.6541 64.7388 23.8268C65.4957 21.9996 65.6937 19.9889 65.3079 18.0491C64.922 16.1093 63.9696 14.3275 62.5711 12.9289C61.1725 11.5304 59.3907 10.578 57.4509 10.1922C55.5111 9.8063 53.5004 10.0043 51.6732 10.7612C49.8459 11.5181 48.2841 12.7998 47.1853 14.4443C46.0865 16.0888 45.5 18.0222 45.5 20C45.5 22.6522 46.5536 25.1957 48.4289 27.0711C50.3043 28.9464 52.8478 30 55.5 30Z" fill="black"/>
<path d="M9 39.5C9.26264 39.697 9.56151 39.8403 9.87955 39.9218C10.1976 40.0033 10.5285 40.0213 10.8536 39.9749C11.1786 39.9285 11.4912 39.8185 11.7737 39.6512C12.0562 39.4839 12.303 39.2627 12.5 39C14.0136 36.9818 15.9764 35.3438 18.2328 34.2156C20.4892 33.0874 22.9773 32.5 25.5 32.5C28.0227 32.5 30.5108 33.0874 32.7672 34.2156C35.0236 35.3438 36.9864 36.9818 38.5 39C38.8983 39.53 39.4908 39.88 40.1471 39.9732C40.8035 40.0664 41.47 39.8951 42 39.4969C42.189 39.3564 42.3564 39.189 42.4969 39C44.0105 36.9818 45.9733 35.3438 48.2297 34.2156C50.4861 33.0874 52.9741 32.5 55.4969 32.5C58.0196 32.5 60.5077 33.0874 62.7641 34.2156C65.0205 35.3438 66.9832 36.9818 68.4969 39C68.8951 39.5304 69.4878 39.881 70.1444 39.9744C70.8011 40.0679 71.468 39.8967 71.9984 39.4985C72.5289 39.1002 72.8794 38.5076 72.9729 37.8509C73.0663 37.1942 72.8951 36.5273 72.4969 35.9969C70.284 33.0302 67.333 30.6945 63.9375 29.2219C65.799 27.5223 67.1032 25.2997 67.679 22.8456C68.2547 20.3916 68.075 17.8208 67.1636 15.4707C66.2521 13.1206 64.6515 11.1009 62.5716 9.67681C60.4918 8.25267 58.03 7.4906 55.5094 7.4906C52.9887 7.4906 50.5269 8.25267 48.4471 9.67681C46.3673 11.1009 44.7666 13.1206 43.8552 15.4707C42.9437 17.8208 42.7641 20.3916 43.3398 22.8456C43.9155 25.2997 45.2197 27.5223 47.0812 29.2219C44.6295 30.282 42.4023 31.7997 40.5187 33.6938C38.6352 31.7997 36.408 30.282 33.9562 29.2219C35.8178 27.5223 37.122 25.2997 37.6977 22.8456C38.2734 20.3916 38.0938 17.8208 37.1823 15.4707C36.2709 13.1206 34.6702 11.1009 32.5904 9.67681C30.5106 8.25267 28.0488 7.4906 25.5281 7.4906C23.0075 7.4906 20.5457 8.25267 18.4659 9.67681C16.386 11.1009 14.7854 13.1206 13.8739 15.4707C12.9625 17.8208 12.7828 20.3916 13.3585 22.8456C13.9343 25.2997 15.2385 27.5223 17.1 29.2219C13.6895 30.6897 10.7241 33.0269 8.5 36C8.30302 36.2627 8.15969 36.5615 8.07822 36.8796C7.99674 37.1976 7.9787 37.5286 8.02513 37.8536C8.07156 38.1786 8.18155 38.4913 8.34881 38.7738C8.51608 39.0562 8.73736 39.303 9 39.5ZM55.5 12.5C56.9834 12.5 58.4334 12.9399 59.6668 13.764C60.9001 14.5881 61.8614 15.7594 62.4291 17.1299C62.9968 18.5003 63.1453 20.0083 62.8559 21.4632C62.5665 22.9181 61.8522 24.2544 60.8033 25.3033C59.7544 26.3522 58.418 27.0665 56.9632 27.3559C55.5083 27.6453 54.0003 27.4968 52.6299 26.9291C51.2594 26.3615 50.0881 25.4002 49.264 24.1668C48.4399 22.9334 48 21.4834 48 20C48 18.0109 48.7902 16.1032 50.1967 14.6967C51.6032 13.2902 53.5109 12.5 55.5 12.5ZM25.5 12.5C26.9834 12.5 28.4334 12.9399 29.6668 13.764C30.9001 14.5881 31.8614 15.7594 32.4291 17.1299C32.9968 18.5003 33.1453 20.0083 32.8559 21.4632C32.5665 22.9181 31.8522 24.2544 30.8033 25.3033C29.7544 26.3522 28.418 27.0665 26.9632 27.3559C25.5083 27.6453 24.0003 27.4968 22.6299 26.9291C21.2594 26.3615 20.0881 25.4002 19.264 24.1668C18.4399 22.9334 18 21.4834 18 20C18 18.0109 18.7902 16.1032 20.1967 14.6967C21.6032 13.2902 23.5109 12.5 25.5 12.5ZM63.9375 61.7219C65.799 60.0223 67.1032 57.7997 67.679 55.3456C68.2547 52.8916 68.075 50.3208 67.1636 47.9707C66.2521 45.6206 64.6515 43.6009 62.5716 42.1768C60.4918 40.7527 58.03 39.9906 55.5094 39.9906C52.9887 39.9906 50.5269 40.7527 48.4471 42.1768C46.3673 43.6009 44.7666 45.6206 43.8552 47.9707C42.9437 50.3208 42.7641 52.8916 43.3398 55.3456C43.9155 57.7997 45.2197 60.0223 47.0812 61.7219C44.6295 62.782 42.4023 64.2997 40.5187 66.1938C38.6352 64.2997 36.408 62.782 33.9562 61.7219C35.8178 60.0223 37.122 57.7997 37.6977 55.3456C38.2734 52.8916 38.0938 50.3208 37.1823 47.9707C36.2709 45.6206 34.6702 43.6009 32.5904 42.1768C30.5106 40.7527 28.0488 39.9906 25.5281 39.9906C23.0075 39.9906 20.5457 40.7527 18.4659 42.1768C16.386 43.6009 14.7854 45.6206 13.8739 47.9707C12.9625 50.3208 12.7828 52.8916 13.3585 55.3456C13.9343 57.7997 15.2385 60.0223 17.1 61.7219C13.6895 63.1897 10.7241 65.5269 8.5 68.5C8.30302 68.7627 8.15969 69.0615 8.07822 69.3796C7.99674 69.6976 7.9787 70.0286 8.02513 70.3536C8.07156 70.6786 8.18155 70.9912 8.34881 71.2737C8.51608 71.5562 8.73736 71.803 9 72C9.26264 72.197 9.56151 72.3403 9.87955 72.4218C10.1976 72.5033 10.5285 72.5213 10.8536 72.4749C11.1786 72.4285 11.4912 72.3185 11.7737 72.1512C12.0562 71.9839 12.303 71.7627 12.5 71.5C14.0136 69.4818 15.9764 67.8438 18.2328 66.7156C20.4892 65.5874 22.9773 65 25.5 65C28.0227 65 30.5108 65.5874 32.7672 66.7156C35.0236 67.8438 36.9864 69.4818 38.5 71.5C38.8983 72.03 39.4908 72.38 40.1471 72.4732C40.8035 72.5664 41.47 72.395 42 71.9969C42.189 71.8564 42.3564 71.689 42.4969 71.5C44.0105 69.4818 45.9733 67.8438 48.2297 66.7156C50.4861 65.5874 52.9741 65 55.4969 65C58.0196 65 60.5077 65.5874 62.7641 66.7156C65.0205 67.8438 66.9832 69.4818 68.4969 71.5C68.8951 72.0304 69.4878 72.381 70.1444 72.4744C70.8011 72.5679 71.468 72.3967 71.9984 71.9985C72.5289 71.6002 72.8794 71.0076 72.9729 70.3509C73.0663 69.6942 72.8951 69.0273 72.4969 68.4969C70.284 65.5302 67.333 63.1945 63.9375 61.7219ZM25.5 45C26.9834 45 28.4334 45.4399 29.6668 46.264C30.9001 47.0881 31.8614 48.2594 32.4291 49.6299C32.9968 51.0003 33.1453 52.5083 32.8559 53.9632C32.5665 55.418 31.8522 56.7544 30.8033 57.8033C29.7544 58.8522 28.418 59.5665 26.9632 59.8559C25.5083 60.1453 24.0003 59.9968 22.6299 59.4291C21.2594 58.8615 20.0881 57.9002 19.264 56.6668C18.4399 55.4334 18 53.9834 18 52.5C18 50.5109 18.7902 48.6032 20.1967 47.1967C21.6032 45.7902 23.5109 45 25.5 45ZM55.5 45C56.9834 45 58.4334 45.4399 59.6668 46.264C60.9001 47.0881 61.8614 48.2594 62.4291 49.6299C62.9968 51.0003 63.1453 52.5083 62.8559 53.9632C62.5665 55.418 61.8522 56.7544 60.8033 57.8033C59.7544 58.8522 58.418 59.5665 56.9632 59.8559C55.5083 60.1453 54.0003 59.9968 52.6299 59.4291C51.2594 58.8615 50.0881 57.9002 49.264 56.6668C48.4399 55.4334 48 53.9834 48 52.5C48 50.5109 48.7902 48.6032 50.1967 47.1967C51.6032 45.7902 53.5109 45 55.5 45Z" fill="black"/>
</svg>
