<svg width="81" height="80" viewBox="0 0 81 80" fill="none" xmlns="http://www.w3.org/2000/svg">
<path opacity="0.2" d="M70.5 40C70.5045 44.2073 69.6218 48.3682 67.9094 52.2112C66.1971 56.0543 63.6937 59.4931 60.5625 62.3032C58.68 58.6003 55.8092 55.4909 52.2681 53.3194C48.727 51.1479 44.6539 49.999 40.5 50C42.9723 50 45.389 49.2669 47.4446 47.8934C49.5002 46.5199 51.1024 44.5677 52.0485 42.2836C52.9946 39.9995 53.2421 37.4862 52.7598 35.0614C52.2775 32.6366 51.087 30.4094 49.3388 28.6612C47.5907 26.913 45.3634 25.7225 42.9386 25.2402C40.5139 24.7579 38.0005 25.0054 35.7165 25.9515C33.4324 26.8976 31.4802 28.4998 30.1066 30.5554C28.7331 32.611 28 35.0278 28 37.5C28 40.8152 29.317 43.9947 31.6612 46.3389C34.0054 48.6831 37.1848 50 40.5 50C36.3461 49.999 32.273 51.1479 28.7319 53.3194C25.1908 55.4909 22.32 58.6003 20.4375 62.3032C16.7195 58.9589 13.8965 54.7384 12.2252 50.0252C10.5538 45.3121 10.0872 40.2559 10.8676 35.3165C11.6481 30.3771 13.6509 25.7111 16.6939 21.7429C19.7369 17.7746 23.7237 14.63 28.2916 12.595C32.8595 10.56 37.8636 9.6991 42.849 10.0906C47.8343 10.4822 52.6427 12.1137 56.8369 14.8369C61.0311 17.5601 64.478 21.2886 66.8642 25.6832C69.2504 30.0779 70.5003 34.9993 70.5 40Z" fill="black"/>
<path d="M52.9998 17.5C52.9998 16.837 53.2632 16.2011 53.7321 15.7323C54.2009 15.2634 54.8368 15 55.4998 15H60.4998V10C60.4998 9.33699 60.7632 8.70111 61.2321 8.23227C61.7009 7.76343 62.3368 7.50004 62.9998 7.50004C63.6629 7.50004 64.2988 7.76343 64.7676 8.23227C65.2364 8.70111 65.4998 9.33699 65.4998 10V15H70.4998C71.1629 15 71.7988 15.2634 72.2676 15.7323C72.7365 16.2011 72.9998 16.837 72.9998 17.5C72.9998 18.1631 72.7365 18.799 72.2676 19.2678C71.7988 19.7366 71.1629 20 70.4998 20H65.4998V25C65.4998 25.6631 65.2364 26.299 64.7676 26.7678C64.2988 27.2366 63.6629 27.5 62.9998 27.5C62.3368 27.5 61.7009 27.2366 61.2321 26.7678C60.7632 26.299 60.4998 25.6631 60.4998 25V20H55.4998C54.8368 20 54.2009 19.7366 53.7321 19.2678C53.2632 18.799 52.9998 18.1631 52.9998 17.5ZM72.5498 34.5875C73.692 41.3768 72.6469 48.3533 69.5655 54.5099C66.4842 60.6665 61.5259 65.6845 55.4067 68.8395C49.2875 71.9944 42.324 73.123 35.5215 72.0623C28.7191 71.0016 22.4297 67.8065 17.5615 62.9383C12.6934 58.0701 9.49827 51.7808 8.43758 44.9783C7.37688 38.1759 8.50548 31.2124 11.6604 25.0932C14.8153 18.9739 19.8334 14.0157 25.9899 10.9343C32.1465 7.85296 39.1231 6.8079 45.9123 7.95004C46.5613 8.0648 47.1387 8.43117 47.5189 8.96944C47.8992 9.50772 48.0515 10.1744 47.9427 10.8244C47.834 11.4743 47.473 12.0551 46.9382 12.4403C46.4035 12.8255 45.7383 12.984 45.0873 12.8813C41.144 12.2179 37.1035 12.4218 33.247 13.4788C29.3904 14.5358 25.8106 16.4204 22.7565 19.0016C19.7024 21.5828 17.2474 24.7985 15.5625 28.4249C13.8775 32.0513 13.003 36.0013 12.9998 40C12.9939 46.7319 15.4681 53.23 19.9498 58.2532C22.7381 54.2128 26.6586 51.087 31.2186 49.2688C28.7692 47.3396 26.9818 44.695 26.1051 41.7028C25.2283 38.7107 25.3058 35.5197 26.3267 32.5736C27.3476 29.6275 29.2611 27.0728 31.8013 25.2647C34.3414 23.4566 37.3819 22.485 40.4998 22.485C43.6178 22.485 46.6582 23.4566 49.1984 25.2647C51.7385 27.0728 53.6521 29.6275 54.673 32.5736C55.6939 35.5197 55.7714 38.7107 54.8946 41.7028C54.0179 44.695 52.2305 47.3396 49.7811 49.2688C54.341 51.087 58.2616 54.2128 61.0498 58.2532C65.5316 53.23 68.0058 46.7319 67.9998 40C68 38.463 67.8724 36.9285 67.6186 35.4125C67.5611 35.0873 67.5686 34.7539 67.6406 34.4317C67.7127 34.1094 67.8479 33.8045 68.0385 33.5348C68.229 33.265 68.4711 33.0357 68.7508 32.8601C69.0304 32.6844 69.3421 32.5659 69.6679 32.5114C69.9936 32.457 70.3269 32.4675 70.6485 32.5426C70.9701 32.6176 71.2737 32.7557 71.5416 32.9487C71.8096 33.1417 72.0367 33.386 72.2097 33.6672C72.3828 33.9485 72.4984 34.2613 72.5498 34.5875ZM40.4998 47.5C42.4777 47.5 44.411 46.9135 46.0555 45.8147C47.7 44.7159 48.9818 43.1541 49.7386 41.3269C50.4955 39.4996 50.6935 37.4889 50.3077 35.5491C49.9218 33.6093 48.9694 31.8275 47.5709 30.429C46.1724 29.0304 44.3906 28.078 42.4507 27.6922C40.5109 27.3063 38.5003 27.5044 36.673 28.2612C34.8457 29.0181 33.284 30.2998 32.1851 31.9443C31.0863 33.5888 30.4998 35.5222 30.4998 37.5C30.4998 40.1522 31.5534 42.6957 33.4288 44.5711C35.3041 46.4465 37.8477 47.5 40.4998 47.5ZM40.4998 67.5C46.6041 67.5062 52.5352 65.4712 57.3498 61.7188C55.5413 58.8903 53.0498 56.5626 50.1051 54.9502C47.1603 53.3378 43.8571 52.4927 40.4998 52.4927C37.1426 52.4927 33.8393 53.3378 30.8946 54.9502C27.9499 56.5626 25.4584 58.8903 23.6498 61.7188C28.4645 65.4712 34.3956 67.5062 40.4998 67.5Z" fill="black"/>
</svg>
